<?xml version="1.0" encoding="iso-8859-1"?>
<!-- Generator: Adobe Illustrator 19.0.0, SVG Export Plug-In . SVG Version: 6.00 Build 0)  -->
<svg version="1.1" id="Layer_1" xmlns="http://www.w3.org/2000/svg" xmlns:xlink="http://www.w3.org/1999/xlink" x="0px" y="0px"
	 viewBox="0 0 512 512" style="enable-background:new 0 0 512 512;" xml:space="preserve">
<g>
	<g>
		<path d="M437.333,321.078V288c0-23.531-19.146-42.667-42.667-42.667h-128v-54.411c41.987-5.318,74.667-40.855,74.667-84.255
			c0-47.052-38.271-85.333-85.333-85.333s-85.333,38.281-85.333,85.333c0,43.4,32.68,78.938,74.667,84.255v54.411h-128
			c-23.521,0-42.667,19.135-42.667,42.667v33.078C32.68,326.396,0,361.934,0,405.333c0,47.052,38.271,85.333,85.333,85.333
			s85.333-38.281,85.333-85.333c0-43.4-32.68-78.938-74.667-84.255V288c0-11.76,9.563-21.333,21.333-21.333h277.333
			C406.438,266.667,416,276.24,416,288v33.078c-41.987,5.318-74.667,40.855-74.667,84.255c0,47.052,38.271,85.333,85.333,85.333
			S512,452.385,512,405.333C512,361.934,479.32,326.396,437.333,321.078z M149.333,405.333c0,35.292-28.708,64-64,64
			c-35.292,0-64-28.708-64-64c0-35.292,28.708-64,64-64C120.625,341.333,149.333,370.042,149.333,405.333z M192,106.667
			c0-35.292,28.708-64,64-64s64,28.708,64,64c0,35.292-28.708,64-64,64S192,141.958,192,106.667z M426.667,469.333
			c-35.292,0-64-28.708-64-64c0-35.292,28.708-64,64-64s64,28.708,64,64C490.667,440.625,461.958,469.333,426.667,469.333z"/>
	</g>
</g>
<g>
</g>
<g>
</g>
<g>
</g>
<g>
</g>
<g>
</g>
<g>
</g>
<g>
</g>
<g>
</g>
<g>
</g>
<g>
</g>
<g>
</g>
<g>
</g>
<g>
</g>
<g>
</g>
<g>
</g>
</svg>
