<?xml version="1.0" encoding="iso-8859-1"?>
<!-- Generator: Adobe Illustrator 18.1.1, SVG Export Plug-In . SVG Version: 6.00 Build 0)  -->
<svg version="1.1" id="Capa_1" xmlns="http://www.w3.org/2000/svg" xmlns:xlink="http://www.w3.org/1999/xlink" x="0px" y="0px"
	 viewBox="0 0 454 454" style="enable-background:new 0 0 454 454;" xml:space="preserve">
<g>
	<g>
		<path style="fill:#090509;" d="M297,384.25c-6,0-13-2-18-7c-10-10-10-24,0-34l116-116l-116-116c-10-10-10-24,0-34s25-10,35,0
			l133,133c5,5,7,10,7,17c0,6-2,12-7,17l-133,133C309,382.25,303,384.25,297,384.25z"/>
		<path style="fill:#090509;" d="M157,384.25c-6,0-12-2-17-7l-133-133c-5-5-7-11-7-17c0-7,2-12,7-17l133-133c10-10,25-10,35,0
			s10,24,0,34l-116,116l116,116c10,10,10,24,0,34C170,382.25,163,384.25,157,384.25z"/>
	</g>
</g>
<g>
</g>
<g>
</g>
<g>
</g>
<g>
</g>
<g>
</g>
<g>
</g>
<g>
</g>
<g>
</g>
<g>
</g>
<g>
</g>
<g>
</g>
<g>
</g>
<g>
</g>
<g>
</g>
<g>
</g>
</svg>
