<?xml version="1.0" standalone="no"?>
<!DOCTYPE svg PUBLIC "-//W3C//DTD SVG 1.1//EN" "http://www.w3.org/Graphics/SVG/1.1/DTD/svg11.dtd" >
<svg xmlns="http://www.w3.org/2000/svg">
<metadata>Generated by IcoMoon</metadata>
<defs>
<font id="icomoon" horiz-adv-x="1024">
<font-face units-per-em="1024" ascent="960" descent="-64" />
<missing-glyph horiz-adv-x="1024" />
<glyph unicode="&#x20;" horiz-adv-x="512" d="" />
<glyph unicode="&#xe900;" glyph-name="coffee-cup" d="M800 512h-64v160.001c0 17.663-14.335 32.001-32.001 32.001h-576c-17.663 0-32.001-14.335-32.001-32.001v-576c0-88.383 71.615-160.001 160.001-160.001h320.001c77.375 0 141.951 54.976 156.8 127.999h3.201v64h64c88.383 0 127.999 71.615 127.999 160.001v64c0.003 88.386-39.613 160.001-127.999 160.001zM672.001 96.001c0-52.992-43.009-96.001-96.001-96.001h-319.998c-52.992 0-96.001 43.009-96.001 96.001v543.998h512v-543.998zM863.999 287.999c0-52.992-11.008-96.001-64-96.001h-64v256.001h64c52.992 0 64-43.009 64-96.001v-64zM639.999 960h-64v-191.999h64v191.999zM448 960h-64v-191.999h64v191.999zM256.001 960h-64.002v-191.999h64v191.999z" />
<glyph unicode="&#xe901;" glyph-name="placeholder" d="M893.624-27.932l-134.998 285.562c-2.694 5.698-7.362 10.064-12.96 12.446l-67.16 29.898 116.37 195.036c0.278 0.468 0.54 0.942 0.79 1.426 23.136 45.158 34.868 93.956 34.868 145.030 0 85.918-33.692 166.466-94.87 226.804-61.168 60.324-142.204 92.906-228.174 91.698-83.496-1.158-162.112-34.696-221.37-94.44-59.252-59.74-92.156-138.626-92.652-222.132-0.304-51.030 11.754-101.846 34.862-146.958 0.248-0.482 0.51-0.958 0.788-1.426l116.368-195.034-67.548-30.062c-5.526-2.458-9.986-6.816-12.57-12.284l-134.994-285.564c-4.518-9.55-2.612-20.906 4.776-28.46 7.386-7.554 18.69-9.718 28.344-5.422l169.116 75.292 169.116-75.292c6.542-2.91 14.012-2.91 20.554 0l169.116 75.292 169.116-75.292c3.304-1.47 6.802-2.186 10.27-2.186 6.662 0 13.216 2.636 18.074 7.606 7.382 7.556 9.286 18.908 4.768 28.462zM272.946 520.188c-19.46 38.264-29.198 79.61-28.94 122.906 0.856 144.858 119.372 264.34 264.188 266.346 72.332 0.972 140.526-26.398 191.986-77.152 51.476-50.766 79.822-118.534 79.822-190.824 0-42.718-9.738-83.514-28.946-121.276l-217.356-364.296c-6.636-11.12-17.384-12.32-21.698-12.32-4.316 0-15.064 1.2-21.698 12.32l-217.358 364.296zM701.668 64.218c-6.542 2.91-14.012 2.91-20.554 0l-169.116-75.292-169.116 75.292c-6.542 2.91-14.012 2.91-20.554 0l-117.156-52.16 101.876 215.498 64.516 28.712 75.336-126.266c13.808-23.144 38.144-36.962 65.094-36.962s51.286 13.818 65.094 36.96l75.336 126.266 64.522-28.722 101.87-215.488-117.148 52.162zM512.008 756.786c-63.588 0-115.318-51.73-115.318-115.316s51.73-115.316 115.318-115.316c63.586-0.002 115.316 51.73 115.316 115.316s-51.73 115.316-115.316 115.316zM512.008 576.686c-35.722-0.002-64.786 29.058-64.786 64.784 0 35.722 29.062 64.784 64.786 64.784 35.722 0 64.784-29.062 64.784-64.784s-29.062-64.784-64.784-64.784z" />
<glyph unicode="&#xe902;" glyph-name="search" d="M991.284 27.298l-243.714 253.474c62.663 74.491 96.997 168.216 96.997 265.788 0 227.967-185.473 413.44-413.44 413.44s-413.44-185.473-413.44-413.44 185.473-413.44 413.44-413.44c85.582 0 167.137 25.813 236.865 74.815l245.565-255.398c10.264-10.66 24.069-16.538 38.863-16.538 14.003 0 27.287 5.339 37.371 15.046 21.427 20.618 22.11 54.808 1.492 76.253zM431.128 852.146c168.504 0 305.586-137.082 305.586-305.586s-137.082-305.586-305.586-305.586-305.586 137.082-305.586 305.586 137.082 305.586 305.586 305.586z" />
<glyph unicode="&#xe903;" glyph-name="cancel" d="M874.020 810.020c-96.754 96.754-225.185 149.98-362.020 149.98s-265.266-53.226-362.020-149.98-149.98-225.185-149.98-362.020 53.226-265.266 149.98-362.020 225.185-149.98 362.020-149.98 265.266 53.226 362.020 149.98 149.98 225.185 149.98 362.020-53.226 265.266-149.98 362.020zM832.862 127.138c-85.764-85.764-199.758-132.956-320.862-132.956s-235.098 47.192-320.862 132.956c-176.916 176.916-176.916 464.808 0 641.724 85.764 85.764 199.758 132.956 320.862 132.956s235.098-47.192 320.862-132.956c176.916-176.916 176.916-464.808 0-641.724zM737.616 673.616c-11.421 11.421-29.737 11.421-41.158 0l-184.458-184.458-184.458 184.458c-11.421 11.421-29.737 11.421-41.158 0s-11.421-29.737 0-41.158l184.458-184.458-184.458-184.458c-11.421-11.421-11.421-29.737 0-41.158 5.603-5.603 13.145-8.62 20.471-8.62s14.869 2.801 20.471 8.62l184.458 184.458 184.458-184.458c5.603-5.603 13.145-8.62 20.471-8.62 7.542 0 14.869 2.801 20.471 8.62 11.421 11.421 11.421 29.737 0 41.158l-184.027 184.458 184.458 184.458c11.421 11.421 11.421 29.737 0 41.158z" />
<glyph unicode="&#xe904;" glyph-name="back" d="M311.568 448.027l462.455 462.455c11.374 11.374 11.374 29.614 0 40.988s-29.614 11.374-40.988 0l-483.056-483.056c-11.374-11.374-11.374-29.614 0-40.988l483.056-482.842c5.58-5.58 13.090-8.584 20.387-8.584s14.807 2.79 20.387 8.584c11.374 11.374 11.374 29.614 0 40.988l-462.24 462.455z" />
<glyph unicode="&#xe905;" glyph-name="next" d="M774.115 468.413l-483.056 483.056c-11.374 11.374-29.614 11.374-40.988 0s-11.374-29.614 0-40.988l462.455-462.455-462.455-462.455c-11.374-11.374-11.374-29.614 0-40.988 5.58-5.58 13.090-8.584 20.387-8.584s14.807 2.79 20.387 8.584l483.056 483.056c11.374 11.159 11.374 29.614 0.215 40.773z" />
<glyph unicode="&#xe906;" glyph-name="envelope-1" d="M898.993 837.641h-773.774c-69.072 0-125.219-56.147-125.219-125.219v-528.844c0-69.072 56.147-125.219 125.219-125.219h773.562c69.072 0 125.219 56.147 125.219 125.219v528.632c0.212 69.072-55.935 125.431-125.007 125.431zM967.005 183.578c0-37.502-30.51-68.012-68.012-68.012h-773.774c-37.502 0-68.012 30.51-68.012 68.012v528.632c0 37.502 30.51 68.012 68.012 68.012h773.562c37.502 0 68.012-30.51 68.012-68.012v-528.632h0.212zM645.8 454.568l250.438 224.589c11.653 10.594 12.713 28.603 2.119 40.468-10.594 11.653-28.603 12.713-40.468 2.119l-345.359-309.976-67.377 60.173c-0.212 0.212-0.424 0.424-0.424 0.636-1.483 1.483-2.966 2.754-4.661 4.026l-274.168 245.353c-11.865 10.594-29.875 9.534-40.468-2.331s-9.534-29.875 2.331-40.468l253.405-226.496-252.345-236.242c-11.441-10.806-12.077-28.815-1.271-40.468 5.721-5.933 13.348-9.111 20.976-9.111 6.992 0 13.984 2.543 19.493 7.628l256.159 239.633 69.496-62.080c5.509-4.873 12.289-7.204 19.069-7.204s13.772 2.543 19.069 7.416l71.402 63.987 254.676-241.963c5.509-5.297 12.713-7.839 19.705-7.839 7.628 0 15.043 2.966 20.764 8.899 10.806 11.441 10.382 29.663-1.059 40.468l-251.498 238.785z" />
<glyph unicode="&#xe907;" glyph-name="magnifying-glass" d="M1015.031-11.778l-248.848 248.848c66.753 76.743 107.168 176.873 107.168 286.311 0 240.901-195.945 436.619-436.619 436.619-240.901 0-436.619-195.945-436.619-436.619s195.945-436.619 436.619-436.619c109.439 0 209.568 40.415 286.311 107.168l248.848-248.848c5.903-5.903 13.85-9.082 21.57-9.082s15.667 2.952 21.57 9.082c11.807 11.807 11.807 31.333 0 43.14zM61.19 523.381c0 207.071 168.472 375.315 375.315 375.315 207.071 0 375.315-168.472 375.315-375.315s-168.245-375.542-375.315-375.542c-206.843 0-375.315 168.472-375.315 375.542z" />
<glyph unicode="&#xe908;" glyph-name="phone-call-1" d="M809.283 325.668c-20.964 21.828-46.25 33.499-73.049 33.499-26.583 0-52.085-11.454-73.914-33.283l-68.295-68.078c-5.619 3.026-11.238 5.835-16.641 8.645-7.78 3.89-15.129 7.564-21.396 11.454-63.972 40.631-122.109 93.581-177.869 162.092-27.015 34.147-45.17 62.892-58.353 92.068 17.722 16.209 34.147 33.067 50.14 49.276 6.051 6.051 12.103 12.319 18.154 18.37 45.386 45.386 45.386 104.171 0 149.557l-59.001 59.001c-6.7 6.7-13.616 13.616-20.099 20.532-12.967 13.4-26.583 27.231-40.631 40.199-20.964 20.748-46.034 31.77-72.401 31.77s-51.869-11.022-73.482-31.77c-0.216-0.216-0.216-0.216-0.432-0.432l-73.482-74.13c-27.664-27.664-43.441-61.379-46.899-100.497-5.187-63.108 13.4-121.893 27.664-160.363 35.012-94.445 87.313-181.975 165.333-275.772 94.662-113.032 208.558-202.29 338.664-265.182 49.708-23.557 116.058-51.437 190.188-56.192 4.539-0.216 9.293-0.432 13.616-0.432 49.924 0 91.852 17.938 124.703 53.598 0.216 0.432 0.648 0.648 0.864 1.081 11.238 13.616 24.206 25.935 37.821 39.118 9.293 8.861 18.803 18.154 28.096 27.88 21.396 22.261 32.634 48.195 32.634 74.778 0 26.799-11.454 52.518-33.283 74.13l-118.651 119.083zM886.654 98.092c-0.216 0-0.216-0.216 0 0-8.429-9.077-17.074-17.29-26.367-26.367-14.048-13.4-28.312-27.448-41.712-43.224-21.828-23.341-47.547-34.363-81.262-34.363-3.242 0-6.7 0-9.942 0.216-64.188 4.106-123.838 29.176-168.575 50.573-122.325 59.217-229.738 143.289-318.996 249.837-73.698 88.826-122.974 170.953-155.608 259.131-20.099 53.814-27.448 95.742-24.206 135.293 2.161 25.286 11.887 46.25 29.825 64.188l73.698 73.698c10.59 9.942 21.828 15.345 32.851 15.345 13.616 0 24.638-8.213 31.554-15.129 0.216-0.216 0.432-0.432 0.648-0.648 13.183-12.319 25.719-25.070 38.902-38.686 6.7-6.916 13.616-13.832 20.532-20.964l59.001-59.001c22.909-22.909 22.909-44.089 0-66.998-6.268-6.268-12.319-12.535-18.587-18.587-18.154-18.587-35.444-35.876-54.247-52.734-0.432-0.432-0.864-0.648-1.081-1.081-18.587-18.587-15.129-36.741-11.238-49.060 0.216-0.648 0.432-1.297 0.648-1.945 15.345-37.173 36.957-72.185 69.807-113.896l0.216-0.216c59.65-73.482 122.541-130.754 191.917-174.627 8.861-5.619 17.938-10.158 26.583-14.48 7.78-3.89 15.129-7.564 21.396-11.454 0.864-0.432 1.729-1.081 2.593-1.513 7.348-3.674 14.264-5.403 21.396-5.403 17.938 0 29.176 11.238 32.851 14.912l73.914 73.914c7.348 7.348 19.019 16.209 32.634 16.209 13.4 0 24.422-8.429 31.122-15.777 0.216-0.216 0.216-0.216 0.432-0.432l119.083-119.083c22.261-22.044 22.261-44.737 0.216-67.646zM553.394 716.417c56.624-9.509 108.061-36.309 149.124-77.372s67.646-92.5 77.372-149.124c2.377-14.264 14.696-24.206 28.744-24.206 1.729 0 3.242 0.216 4.971 0.432 15.993 2.593 26.583 17.722 23.99 33.715-11.671 68.511-44.089 130.97-93.581 180.462s-111.951 81.91-180.462 93.581c-15.993 2.593-30.905-7.997-33.715-23.773s7.564-31.122 23.557-33.715zM1022.811 508.292c-19.235 112.816-72.401 215.474-154.095 297.168s-184.352 134.86-297.168 154.095c-15.777 2.81-30.689-7.997-33.499-23.773-2.593-15.993 7.997-30.905 23.99-33.715 100.713-17.074 192.565-64.837 265.614-137.67 73.049-73.049 120.596-164.901 137.67-265.614 2.377-14.264 14.696-24.206 28.744-24.206 1.729 0 3.242 0.216 4.971 0.432 15.777 2.377 26.583 17.506 23.773 33.283z" />
<glyph unicode="&#xe909;" glyph-name="phone-call" d="M985.114 158.88l-200.646 200.644c-23.952 23.95-62.916 23.95-86.87 0l-52.176-52.176c-16.348-16.348-21.516-39.69-15.546-60.482l-19.686-19.686c-0.006-0.006-0.010-0.010-0.016-0.016-13.98-13.996-101.046 7.482-206.29 112.726-105.228 105.226-126.712 192.278-112.732 206.284 0 0.004 0.004 0.004 0.004 0.004l19.704 19.702c5.562-1.598 11.302-2.414 17.046-2.414 15.73 0 31.458 5.986 43.436 17.96l52.176 52.176c23.95 23.95 23.95 62.916 0 86.868l-200.646 200.648c-11.6 11.6-27.026 17.988-43.432 17.988-16.41 0-31.83-6.392-43.432-17.988l-52.18-52.18c-16.348-16.348-21.516-39.692-15.546-60.482 0 0-16.688-16.848-17.518-17.912-55.506-61.698-65.92-158.836-29.122-274.974 36.034-113.714 113.714-234.176 218.734-339.19 105.016-105.016 225.478-182.696 339.192-218.734 45.68-14.474 88.414-21.646 127.22-21.646 63.626 0 116.674 19.296 154.7 57.32l10.948 10.948c5.48-1.576 11.204-2.426 17.064-2.426 16.41 0 31.834 6.392 43.432 17.988l52.18 52.18c23.95 23.95 23.95 62.918 0.002 86.87zM179.44 877.686l200.648-200.65-52.148-52.204c0 0-0.010 0.010-0.028 0.028l-200.65 200.646 52.178 52.18zM818.058 36.754c-0.004-0.004-0.006-0.006-0.010-0.010-44.188-44.182-122.292-51.48-219.922-20.54-104.504 33.116-216.13 105.428-314.312 203.612-98.186 98.184-170.498 209.806-203.612 314.312-30.94 97.634-23.642 175.74 20.55 219.934l5.544 5.544 155.714-155.712-14.282-14.282c-0.010-0.010-0.018-0.022-0.030-0.034-59.17-59.244 11.926-192.294 112.756-293.124 75.468-75.468 168.986-134.28 236.102-134.28 22.568 0 42.152 6.65 57.056 21.556 0.006 0.006 0.010 0.010 0.016 0.016l14.266 14.266 155.714-155.712-5.55-5.546zM889.504 63.264l-200.648 200.648 52.176 52.176 200.648-200.644c0 0-52.158-52.198-52.176-52.18zM777.636 713.632c-58.418 58.418-136.084 90.588-218.688 90.586-16.962 0-30.712-13.75-30.712-30.712s13.752-30.712 30.712-30.712c66.2 0.004 128.438-25.78 175.256-72.594 46.812-46.812 72.59-109.050 72.588-175.248 0-16.962 13.75-30.716 30.712-30.716 16.96 0 30.712 13.75 30.712 30.708 0.002 82.608-32.17 160.27-90.58 218.688zM887.79 823.786c-87.846 87.842-204.634 136.218-328.854 136.214-16.962 0-30.712-13.752-30.712-30.712 0-16.962 13.752-30.712 30.712-30.712 107.814 0.004 209.176-41.984 285.418-118.222 76.236-76.236 118.222-177.598 118.22-285.412 0-16.962 13.75-30.712 30.712-30.712 16.96 0 30.712 13.75 30.712 30.708 0.004 124.224-48.372 241.008-136.208 328.848zM667.474 603.48c-29.412 29.412-66.93 44.954-108.512 44.954 0 0-0.010 0-0.012 0-16.962-0.004-30.712-13.752-30.708-30.716 0.004-16.962 13.756-30.712 30.716-30.708 0.004 0 0.006 0 0.010 0 25.288 0 47.186-9.072 65.078-26.962 17.638-17.64 26.962-40.15 26.958-65.088-0.004-16.962 13.75-30.712 30.708-30.716h0.004c16.962 0 30.708 13.75 30.712 30.708 0.002 41.584-15.54 79.112-44.954 108.528z" />
<glyph unicode="&#xe90a;" glyph-name="envelope" d="M1023.29 706.732c-0.042 28.898-23.564 52.378-52.454 52.378-0.024 0-0.048 0-0.068 0l-918.388-1.262c-14.010-0.018-27.176-5.492-37.070-15.412-9.892-9.922-15.328-23.104-15.31-37.11l0.71-516.057c0.018-14.010 5.492-27.176 15.412-37.070 9.902-9.876 23.052-15.31 37.038-15.31 0.024 0 0.050 0 0.070 0l918.386 1.262c28.916 0.040 52.414 23.598 52.38 52.522l-0.706 516.059zM913.22 706.58l-401.181-278.887-401.959 277.783 803.14 1.104zM681.691 375.059l237.942-184.53-815.942-1.12 239.392 185.65c11.444 8.878 13.528 25.35 4.652 36.798-8.878 11.444-25.35 13.528-36.798 4.652l-257.813-199.938-0.64 464.949 444.687-307.313c4.488-3.102 9.698-4.65 14.91-4.65 5.234 0 10.472 1.566 14.97 4.692l443.823 308.527 0.672-466.131-257.711 199.862c-11.438 8.874-27.918 6.792-36.794-4.652-8.878-11.444-6.796-27.92 4.652-36.796z" />
<glyph unicode="&#xe90b;" glyph-name="monitor-2" d="M962.184 904.126h-900.366c-34.086 0-61.818-27.732-61.818-61.818v-621.639c0-34.086 27.732-61.818 61.818-61.818h308.521v-44.98c0-41.234-33.548-74.782-74.782-74.782h-67.994c-13.036 0-23.606-10.568-23.606-23.606s10.57-23.606 23.606-23.606h568.873c13.036 0 23.606 10.568 23.606 23.606s-10.57 23.606-23.606 23.606h-67.996c-41.234 0-74.782 33.548-74.782 74.782v44.978h308.521c34.086 0 61.82 27.732 61.82 61.818v621.641c0.004 34.086-27.728 61.818-61.814 61.818zM391.841 39.084c16.092 20.672 25.714 46.616 25.714 74.782v44.98h188.894v-44.98c0-28.166 9.622-54.112 25.714-74.782h-240.322zM976.79 220.667c0-8.054-6.552-14.608-14.608-14.608h-900.364c-8.054 0-14.608 6.552-14.608 14.608v124.066h929.58v-124.066zM976.79 391.947h-929.578v450.361c0 8.054 6.552 14.608 14.608 14.608h900.362c8.054 0 14.61-6.552 14.61-14.608v-450.361zM537.483 275.389c0-14.070-11.406-25.476-25.476-25.476s-25.476 11.406-25.476 25.476c0 14.070 11.406 25.476 25.476 25.476s25.476-11.406 25.476-25.476zM552.477 741.492c-9.22 9.218-24.162 9.218-33.386 0l-166.828-166.828c-9.218-9.218-9.218-24.166 0-33.386 4.612-4.61 10.65-6.914 16.694-6.914s12.082 2.304 16.692 6.914l166.828 166.828c9.218 9.218 9.218 24.166 0 33.386zM651.357 644.813c-9.216 9.218-24.158 9.218-33.384 0.002l-66.46-66.456c-9.218-9.22-9.218-24.168 0-33.386 4.61-4.61 10.65-6.914 16.692-6.914 6.040 0 12.082 2.304 16.692 6.914l66.46 66.456c9.218 9.218 9.218 24.166 0 33.384z" />
<glyph unicode="&#xe90c;" glyph-name="message" d="M1023.218 564.798c-0.002 1.54-0.346 3.866-0.944 5.206-1.574 5.708-5.072 10.922-10.308 14.562l-146.584 101.896v109.232c0 14.48-11.744 26.224-26.224 26.224h-168.638l-143.486 99.756c-8.968 6.242-20.874 6.268-29.87 0.052l-144.412-99.808h-167.9c-14.484 0-26.224-11.744-26.224-26.224v-107.946l-147.296-101.802c-7.246-5.008-11.166-13.014-11.29-21.2-0.008-0.154-0.042-0.3-0.042-0.46l0.782-568.47c0.010-6.954 2.782-13.62 7.704-18.532 4.916-4.902 11.576-7.654 18.52-7.654 0.014 0 0.024 0 0.036 0l970.77 1.334c14.48 0.020 26.208 11.778 26.188 26.26l-0.782 567.574zM865.38 622.584l83.796-58.236-83.796-58.256v116.492zM512.030 868.232l66.62-46.312h-133.624l67.004 46.312zM211.076 769.47h601.856v-299.842l-202.072-140.484-82.388 63.908c-0.128 0.1-0.238 0.162-0.362 0.252-9.208 6.908-22.232 7.162-31.788-0.252l-82.986-64.37-202.26 139.786v301.002zM158.628 623.994v-119.28l-86.292 59.638 86.292 59.642zM52.516 514.266l317.338-219.31-316.698-245.648-0.64 464.958zM103.75 22.182l408.648 316.968 407.182-315.846-815.83-1.122zM654.288 295.458l316.552 220.072 0.64-466.118-317.192 246.046zM689.54 664.574h-355.072c-14.48 0-26.224-11.744-26.224-26.224s11.744-26.224 26.224-26.224h355.072c14.484 0 26.224 11.744 26.224 26.224s-11.74 26.224-26.224 26.224zM689.54 528.21h-355.072c-14.48 0-26.224-11.744-26.224-26.224s11.744-26.224 26.224-26.224h355.072c14.484 0 26.224 11.744 26.224 26.224s-11.74 26.224-26.224 26.224z" />
<glyph unicode="&#xe90d;" glyph-name="bar-chart" d="M999.808 46.786h-975.616c-13.362 0-24.192-10.83-24.192-24.192 0-13.358 10.83-24.192 24.192-24.192h975.616c13.358 0 24.192 10.834 24.192 24.192 0 13.36-10.83 24.192-24.192 24.192zM936.74 783.39h-169.896c-13.358 0-24.192-10.834-24.192-24.192v-164.48h-121.514v278.688c0 13.358-10.834 24.192-24.192 24.192h-169.9c-13.358 0-24.192-10.834-24.192-24.192v-457.764h-121.514v205.638c0 13.362-10.834 24.192-24.192 24.192h-169.896c-13.362 0-24.192-10.83-24.192-24.192v-463.126c0-13.362 10.834-24.192 24.192-24.192h849.486c13.362 0 24.192 10.834 24.192 24.192v601.044c0.002 13.358-10.828 24.192-24.19 24.192zM232.958 182.346h-121.514v414.742h121.514v-414.742zM402.858 182.346h-121.514v184.912h121.514v-184.912zM572.756 570.526v-388.18h-121.516v666.868h121.516v-278.688zM742.656 182.346h-121.514v363.988h121.514v-363.988zM912.552 182.346h-121.512v552.66h121.514v-552.66z" />
<glyph unicode="&#xe90e;" glyph-name="graphic-11" d="M1002-42h-980v980h41.8v-938.2h938.2zM872.8 85.2h-168.8v248.2h168.8v-248.2zM745.6 126.8h85.4v164.8h-85.4v-164.8zM608 85.2h-168.8v362.8h168.8v-362.8zM478.6 126.8h85.4v279.4h-85.4v-279.4zM341 85.2h-168.8v538h168.8v-538zM213.8 126.8h85.4v454.6h-85.4v-454.6z" />
<glyph unicode="&#xe90f;" glyph-name="market" d="M997.517 236.138v529.655h-847.448v176.552c0 9.763-7.91 17.655-17.655 17.655h-88.276c-9.746 0-17.655-7.892-17.655-17.655s7.91-17.655 17.655-17.655h70.621v-812.138c0-9.763 7.91-17.655 17.655-17.655h124.134c-21.628-16.102-35.858-41.649-35.858-70.621 0-48.675 39.601-88.276 88.276-88.276s88.276 39.601 88.276 88.276c0 28.972-14.23 54.519-35.858 70.621h318.888c-21.628-16.102-35.858-41.649-35.858-70.621 0-48.675 39.601-88.276 88.276-88.276s88.276 39.601 88.276 88.276c0 28.972-14.23 54.519-35.858 70.621h106.478c9.746 0 17.655 7.892 17.655 17.655s-7.91 17.655-17.655 17.655h-741.517v105.931h847.448zM308.966-28.69c-29.202 0-52.966 23.764-52.966 52.966s23.764 52.966 52.966 52.966 52.966-23.764 52.966-52.966-23.764-52.966-52.966-52.966zM732.69-28.69c-29.202 0-52.966 23.764-52.966 52.966s23.764 52.966 52.966 52.966 52.966-23.764 52.966-52.966-23.764-52.966-52.966-52.966zM150.069 730.483h105.931v-459.034h-105.931v459.034zM679.724 271.448h-105.931v459.034h105.931v-459.034zM715.034 730.483h105.931v-459.034h-105.931v459.034zM538.483 271.448h-105.931v459.034h105.931v-459.034zM397.241 271.448h-105.931v459.034h105.931v-459.034zM962.207 271.448h-105.931v459.034h105.931v-459.034z" />
<glyph unicode="&#xe910;" glyph-name="graphic-10" d="M136.533 686.933h256c9.421 0 17.067 7.629 17.067 17.067s-7.646 17.067-17.067 17.067h-256c-9.421 0-17.067-7.629-17.067-17.067s7.646-17.067 17.067-17.067zM136.533 738.133h153.6c9.421 0 17.067 7.629 17.067 17.067s-7.646 17.067-17.067 17.067h-153.6c-9.421 0-17.067-7.629-17.067-17.067s7.646-17.067 17.067-17.067zM409.6 652.8c0 9.438-7.646 17.067-17.067 17.067h-256c-9.421 0-17.067-7.629-17.067-17.067s7.646-17.067 17.067-17.067h256c9.421 0 17.067 7.629 17.067 17.067zM1024 891.733h-494.933v51.2c0 9.438-7.646 17.067-17.067 17.067s-17.067-7.629-17.067-17.067v-51.2h-494.933v-716.8h470.801l-209.801-209.801c-6.673-6.673-6.673-17.459 0-24.132 3.328-3.328 7.697-5.001 12.066-5.001s8.738 1.673 12.066 5.001l209.801 209.801v-163.601c0-9.438 7.646-17.067 17.067-17.067s17.067 7.629 17.067 17.067v163.601l209.801-209.801c3.328-3.328 7.697-5.001 12.066-5.001s8.738 1.673 12.066 5.001c6.673 6.673 6.673 17.459 0 24.132l-209.801 209.801h470.801v716.8zM989.867 209.067h-955.733v648.533h955.733v-648.533zM699.733 618.667h78.268l-204.561-204.561-141.534 141.534c-6.673 6.673-17.459 6.673-24.132 0l-215.040-215.040c-6.673-6.673-6.673-17.459 0-24.132 3.328-3.328 7.697-5.001 12.066-5.001s8.738 1.673 12.066 5.001l202.974 202.974 141.534-141.534c3.328-3.328 7.697-5.001 12.066-5.001s8.738 1.673 12.066 5.001l216.627 216.627v-78.268c0-9.438 7.629-17.067 17.067-17.067s17.067 7.629 17.067 17.067v119.467c0 2.219-0.444 4.437-1.314 6.519-1.724 4.181-5.052 7.509-9.233 9.233-2.082 0.87-4.301 1.314-6.519 1.314h-119.467c-9.421 0-17.067-7.629-17.067-17.067s7.646-17.067 17.067-17.067z" />
<glyph unicode="&#xe911;" glyph-name="graphic-2" d="M375.467 635.733c0-9.426-7.641-17.067-17.067-17.067s-17.067 7.641-17.067 17.067c0 9.426 7.641 17.067 17.067 17.067s17.067-7.641 17.067-17.067zM375.467 567.467c0-9.426-7.641-17.067-17.067-17.067s-17.067 7.641-17.067 17.067c0 9.426 7.641 17.067 17.067 17.067s17.067-7.641 17.067-17.067zM375.467 499.2c0-9.426-7.641-17.067-17.067-17.067s-17.067 7.641-17.067 17.067c0 9.426 7.641 17.067 17.067 17.067s17.067-7.641 17.067-17.067zM375.467 430.933c0-9.426-7.641-17.067-17.067-17.067s-17.067 7.641-17.067 17.067c0 9.426 7.641 17.067 17.067 17.067s17.067-7.641 17.067-17.067zM375.467 362.667c0-9.426-7.641-17.067-17.067-17.067s-17.067 7.641-17.067 17.067c0 9.426 7.641 17.067 17.067 17.067s17.067-7.641 17.067-17.067zM494.933 635.733v-102.4h-68.267v170.667h-136.533v-102.4h-102.4v-273.067h-51.2c-9.421 0-17.067-7.629-17.067-17.067s7.646-17.067 17.067-17.067h750.933c9.421 0 17.067 7.629 17.067 17.067s-7.646 17.067-17.067 17.067h-51.2v375.467h-102.4v51.2h-136.533v-119.467h-102.4zM221.867 328.533v238.933h68.267v-238.933h-68.267zM341.333 328.533c0 9.421-7.646 17.067-17.067 17.067v34.133c9.421 0 17.067 7.646 17.067 17.067s-7.646 17.067-17.067 17.067v34.133c9.421 0 17.067 7.646 17.067 17.067s-7.646 17.067-17.067 17.067v34.133c9.421 0 17.067 7.646 17.067 17.067s-7.646 17.067-17.067 17.067v34.133c9.421 0 17.067 7.646 17.067 17.067s-7.646 17.067-17.067 17.067v34.133c9.421 0 17.067 7.646 17.067 17.067h34.133c0-9.421 7.646-17.067 17.067-17.067v-34.133c-9.421 0-17.067-7.646-17.067-17.067s7.646-17.067 17.067-17.067v-34.133c-9.421 0-17.067-7.646-17.067-17.067s7.646-17.067 17.067-17.067v-34.133c-9.421 0-17.067-7.646-17.067-17.067s7.646-17.067 17.067-17.067v-34.133c-9.421 0-17.067-7.646-17.067-17.067s7.646-17.067 17.067-17.067v-34.133c-9.421 0-17.067-7.646-17.067-17.067h-34.133zM426.667 328.533v170.667h68.267v-170.667h-68.267zM529.067 328.533v273.067h68.267v-273.067h-68.267zM802.133 669.867v-341.333h-68.267v341.333h68.267zM631.467 721.067h68.267v-392.533h-68.267v392.533zM1024 891.733h-494.933v51.2c0 9.438-7.646 17.067-17.067 17.067s-17.067-7.629-17.067-17.067v-51.2h-494.933v-716.8h470.801l-209.801-209.801c-6.673-6.673-6.673-17.459 0-24.132 3.328-3.328 7.697-5.001 12.066-5.001s8.738 1.673 12.066 5.001l209.801 209.801v-163.601c0-9.438 7.646-17.067 17.067-17.067s17.067 7.629 17.067 17.067v163.601l209.801-209.801c3.328-3.328 7.697-5.001 12.066-5.001s8.738 1.673 12.066 5.001c6.673 6.673 6.673 17.459 0 24.132l-209.801 209.801h470.801v716.8zM989.867 209.067h-955.733v648.533h955.733v-648.533z" />
<glyph unicode="&#xe912;" glyph-name="business-2" d="M1023.99 661.184c-0.004 7.996-4.668 15.264-11.962 18.572l-491.602 222.96c-5.404 2.45-11.542 2.388-16.85-0.022 0 0.002-0.004 0.022-0.004 0.022l-491.6-222.96c-7.294-3.308-11.96-10.58-11.962-18.578h-0.010v-427.434c0-8.018 4.7-15.292 12.008-18.592l491.602-221.874c2.678-1.21 5.538-1.808 8.388-1.808 2.872 0 5.734 0.612 8.388 1.81l0.004-0.004 0.064 0.028c0.008 0.004 0.018 0.008 0.026 0.012l491.512 221.832c7.308 3.298 12.008 10.574 12.008 18.592v427.44c0.002 0-0.008 0.004-0.010 0.004zM491.604 43.456l-450.806 203.462v383.182l450.804-195.486v-391.158zM491.604 479.086l-380.408 164.956h380.408v-164.956zM491.604 684.84h-369.652l369.652 167.65v-167.65zM532.4 644.040h183.586c11.264 0 20.398 9.134 20.398 20.398s-9.134 20.398-20.398 20.398h-183.586v167.654l420.894-190.892-420.894-182.514v164.956zM983.206 246.918l-450.806-203.46v391.16l450.804 195.482v-383.182zM801.66 684.84h-14.278c-11.264 0-20.398-9.134-20.398-20.398s9.134-20.398 20.398-20.398h14.278c11.264 0 20.398 9.134 20.398 20.398s-9.134 20.398-20.398 20.398zM859.372 459.622c-5.744 3.77-13.004 4.392-19.31 1.66l-155.634-67.486c-7.456-3.236-12.282-10.586-12.282-18.716v-138.072c0-6.928 3.514-13.38 9.332-17.134 3.35-2.164 7.198-3.264 11.068-3.264 2.85 0 5.712 0.598 8.39 1.808l155.632 70.244c7.31 3.298 12.008 10.574 12.008 18.592v135.316c0.002 6.87-3.46 13.282-9.204 17.052zM827.782 320.424l-114.836-51.83v93.1l114.836 49.794v-91.064z" />
<glyph unicode="&#xe913;" glyph-name="graphic-1" d="M1006.933 23.415h-17.067v238.933h-204.8v-238.933h-51.2v392.533h-204.8v-392.533h-51.2v529.067h-204.8v-529.067h-51.2v665.6h-204.8v-665.6c-9.421 0-17.067-7.629-17.067-17.067s7.646-17.067 17.067-17.067h989.867c9.421 0 17.067 7.629 17.067 17.067s-7.646 17.067-17.067 17.067zM51.2 23.415v631.467h136.533v-631.467h-136.533zM307.2 23.415v494.933h136.533v-494.933h-136.533zM563.2 23.415v358.4h136.533v-358.4h-136.533zM819.2 23.415v204.8h136.533v-204.8h-136.533zM201.062 874.854l618.991-357.376-93.133-9.028c-9.37-0.905-16.247-9.25-15.326-18.637 0.853-8.823 8.277-15.411 16.964-15.411 0.546 0 1.092 0.034 1.673 0.085l146.142 14.165c0.273 0.017 0.495 0.188 0.751 0.239 1.348 0.188 2.645 0.546 3.925 1.058 0.239 0.102 0.495 0.051 0.734 0.154 0.171 0.085 0.273 0.239 0.444 0.324 0.051 0.017 0.102 0.034 0.154 0.068 0.188 0.102 0.41 0.137 0.597 0.239 1.485 0.819 2.833 1.894 4.028 3.157 0.188 0.205 0.358 0.41 0.546 0.631 0.307 0.341 0.512 0.717 0.785 1.092 0.375 0.512 0.853 0.956 1.178 1.519 0.239 0.41 0.239 0.87 0.444 1.297 0.273 0.58 0.631 1.109 0.836 1.724 0.222 0.631 0.239 1.28 0.393 1.946 0.205 0.939 0.358 1.826 0.41 2.765 0.034 0.649 0.119 1.246 0.068 1.894-0.017 0.205 0.085 0.375 0.051 0.58-0.051 0.478-0.307 0.853-0.393 1.314-0.171 0.956-0.41 1.86-0.751 2.765-0.154 0.444-0.119 0.887-0.307 1.331l-60.809 133.632c-3.908 8.585-14.029 12.425-22.596 8.465-8.585-3.908-12.373-14.012-8.465-22.596l38.741-85.163-619.008 357.342c-8.192 4.71-18.603 1.894-23.313-6.246-4.71-8.175-1.911-18.62 6.246-23.33z" />
<glyph unicode="&#xe914;" glyph-name="graphic-9" d="M939.857 51.895h-823.963v823.963c0 18.257-14.288 32.546-32.546 32.546s-32.546-14.288-32.546-32.546v-856.509c0-18.257 14.288-32.546 32.546-32.546h856.509c18.257 0 32.546 14.288 32.546 32.546s-14.288 32.546-32.546 32.546zM431.033 177.315v468.341c0 18.257-14.288 32.546-32.546 32.546s-32.546-14.288-32.546-32.546v-468.341c0-18.257 14.288-32.546 32.546-32.546s32.546 14.288 32.546 32.546zM273.86 177.315v468.341c0 18.257-14.288 32.546-32.546 32.546s-32.546-14.288-32.546-32.546v-468.341c0-18.257 14.288-32.546 32.546-32.546s32.546 14.288 32.546 32.546zM745.377 177.315v468.341c0 18.257-14.288 32.546-32.546 32.546s-32.546-14.288-32.546-32.546v-468.341c0-18.257 14.288-32.546 32.546-32.546s32.546 14.288 32.546 32.546zM902.549 177.315v234.171c0 18.257-14.288 32.546-32.546 32.546s-32.546-14.288-32.546-32.546v-234.171c0-18.257 14.288-32.546 32.546-32.546s32.546 14.288 32.546 32.546zM588.205 177.315v234.171c0 18.257-14.288 32.546-32.546 32.546s-32.546-14.288-32.546-32.546v-234.171c0-18.257 14.288-32.546 32.546-32.546s32.546 14.288 32.546 32.546z" />
<glyph unicode="&#xe915;" glyph-name="graphic" d="M1006.933 4.267h-938.667v938.667c0 9.438-7.629 17.067-17.067 17.067s-17.067-7.629-17.067-17.067v-938.667h-17.067c-9.438 0-17.067-7.629-17.067-17.067s7.629-17.067 17.067-17.067h17.067v-17.067c0-9.438 7.629-17.067 17.067-17.067s17.067 7.629 17.067 17.067v17.067h938.667c9.438 0 17.067 7.629 17.067 17.067s-7.629 17.067-17.067 17.067zM119.467 465.067h34.133c9.438 0 17.067 7.629 17.067 17.067s-7.629 17.067-17.067 17.067h-34.133c-9.438 0-17.067-7.629-17.067-17.067s7.629-17.067 17.067-17.067zM119.467 533.333h34.133c9.438 0 17.067 7.629 17.067 17.067s-7.629 17.067-17.067 17.067h-34.133c-9.438 0-17.067-7.629-17.067-17.067s7.629-17.067 17.067-17.067zM119.467 601.6h34.133c9.438 0 17.067 7.629 17.067 17.067s-7.629 17.067-17.067 17.067h-34.133c-9.438 0-17.067-7.629-17.067-17.067s7.629-17.067 17.067-17.067zM119.467 669.867h34.133c9.438 0 17.067 7.629 17.067 17.067s-7.629 17.067-17.067 17.067h-34.133c-9.438 0-17.067-7.629-17.067-17.067s7.629-17.067 17.067-17.067zM119.467 738.133h34.133c9.438 0 17.067 7.629 17.067 17.067s-7.629 17.067-17.067 17.067h-34.133c-9.438 0-17.067-7.629-17.067-17.067s7.629-17.067 17.067-17.067zM119.467 806.4h34.133c9.438 0 17.067 7.629 17.067 17.067s-7.629 17.067-17.067 17.067h-34.133c-9.438 0-17.067-7.629-17.067-17.067s7.629-17.067 17.067-17.067zM119.467 874.667h34.133c9.438 0 17.067 7.629 17.067 17.067s-7.629 17.067-17.067 17.067h-34.133c-9.438 0-17.067-7.629-17.067-17.067s7.629-17.067 17.067-17.067zM187.955 123.955c56.474 0 102.4 45.926 102.4 102.4 0 26.436-10.155 50.483-26.658 68.676l60.177 60.177c18.176-16.521 42.223-26.675 68.659-26.675s50.483 10.155 68.676 26.658l77.449-77.449c-16.503-18.193-26.658-42.24-26.658-68.676 0-56.474 45.926-102.4 102.4-102.4s102.4 45.926 102.4 102.4c0 17.664-4.489 34.287-12.39 48.811l148.531 148.531c18.176-16.521 42.223-26.675 68.659-26.675 56.474 0 102.4 45.926 102.4 102.4s-45.926 102.4-102.4 102.4-102.4-45.926-102.4-102.4c0-17.664 4.489-34.287 12.39-48.811l-148.531-148.531c-18.176 16.521-42.223 26.675-68.659 26.675-17.664 0-34.287-4.489-48.811-12.39l-83.063 83.063c7.919 14.507 12.407 31.13 12.407 48.794 0 56.474-45.926 102.4-102.4 102.4s-102.4-45.926-102.4-102.4c0-17.664 4.489-34.287 12.39-48.811l-65.775-65.775c-14.524 7.902-31.147 12.39-48.811 12.39-56.474 0-102.4-45.926-102.4-102.4s45.943-102.383 102.417-102.383zM921.6 550.4c37.649 0 68.267-30.618 68.267-68.267s-30.618-68.267-68.267-68.267-68.267 30.618-68.267 68.267 30.618 68.267 68.267 68.267zM682.667 209.067c0-37.649-30.618-68.267-68.267-68.267s-68.267 30.618-68.267 68.267 30.618 68.267 68.267 68.267 68.267-30.618 68.267-68.267zM392.533 499.2c37.649 0 68.267-30.618 68.267-68.267s-30.618-68.267-68.267-68.267-68.267 30.618-68.267 68.267 30.618 68.267 68.267 68.267zM187.955 294.622c37.649 0 68.267-30.618 68.267-68.267s-30.618-68.267-68.267-68.267-68.267 30.618-68.267 68.267 30.618 68.267 68.267 68.267z" />
<glyph unicode="&#xe916;" glyph-name="monitor-1" d="M985.129 924.347h-946.259c-21.434 0-38.871-17.436-38.871-38.871v-717.247c0-21.432 17.436-38.871 38.871-38.871h356.89v-125.028h-154.121c-9.024 0-16.34-7.316-16.34-16.34s7.316-16.34 16.34-16.34h540.72c9.026 0 16.34 7.316 16.34 16.34s-7.314 16.34-16.34 16.34h-154.119v125.030h356.89c21.434 0 38.871 17.436 38.871 38.871v717.244c-0.002 21.434-17.439 38.871-38.873 38.871zM595.561 4.333h-167.119v125.028h167.119v-125.028zM991.319 168.232c0-3.355-2.835-6.19-6.19-6.19h-946.259c-3.355 0-6.19 2.835-6.19 6.19v717.244c0 3.355 2.835 6.19 6.19 6.19h946.259c3.355 0 6.19-2.835 6.19-6.19v-717.244zM940.071 294.995h-856.14c-9.024 0-16.34-7.316-16.34-16.34s7.316-16.34 16.34-16.34h856.14c9.026 0 16.34 7.316 16.34 16.34s-7.316 16.34-16.34 16.34zM239.66 349.463h87.149c9.024 0 16.34 7.316 16.34 16.34v237.063c0 9.024-7.316 16.34-16.34 16.34h-87.149c-9.024 0-16.34-7.316-16.34-16.34v-237.063c0-9.024 7.316-16.34 16.34-16.34zM256 586.525h54.468v-204.382h-54.468v204.382zM392.17 349.463h87.149c9.024 0 16.34 7.316 16.34 16.34v314.37c0 9.024-7.316 16.34-16.34 16.34h-87.149c-9.024 0-16.34-7.316-16.34-16.34v-314.37c0-9.024 7.316-16.34 16.34-16.34zM408.511 663.833h54.468v-281.689h-54.468v281.689zM544.681 349.463h87.149c9.026 0 16.34 7.316 16.34 16.34v387.466c0 9.024-7.314 16.34-16.34 16.34h-87.149c-9.026 0-16.34-7.316-16.34-16.34v-387.466c0-9.024 7.314-16.34 16.34-16.34zM561.021 736.929h54.468v-354.785h-54.468v354.785zM697.191 349.463h87.149c9.026 0 16.34 7.316 16.34 16.34v161.86c0 9.024-7.314 16.34-16.34 16.34h-87.149c-9.026 0-16.34-7.316-16.34-16.34v-161.86c0-9.024 7.314-16.34 16.34-16.34zM713.532 511.322h54.468v-129.179h-54.468v129.179z" />
<glyph unicode="&#xe917;" glyph-name="shopping" d="M977.084 610.168h-389.61v295.776c0 21.372-17.386 38.756-38.756 38.756h-73.434c-21.372 0-38.756-17.386-38.756-38.756v-295.776h-389.612c-25.868 0-46.916-21.046-46.916-46.918v-101.14c0-25.872 21.048-46.916 46.916-46.916h6.75l52.874-375.78c7.068-50.234 50.654-88.114 101.382-88.114h608.152c50.73 0 94.314 37.882 101.382 88.114l52.876 375.782h6.75c25.872 0 46.916 21.046 46.916 46.916v101.14c0.002 25.87-21.042 46.916-46.914 46.916zM477.322 903.904h69.354v-389.61h-69.354v389.61zM877.060 45.098c-4.25-30.216-30.47-53.004-60.984-53.004h-608.154c-30.514 0-56.732 22.786-60.984 53.004l-52.074 370.098h834.27l-52.074-370.098zM983.204 462.112c0-3.374-2.746-6.12-6.12-6.12h-930.168c-3.374 0-6.12 2.746-6.12 6.12v101.14c0 3.374 2.746 6.12 6.12 6.12h389.61v-57.116c0-21.372 17.386-38.756 38.756-38.756h73.434c21.372 0 38.756 17.386 38.756 38.756v57.116h389.61c3.374 0 6.12-2.746 6.12-6.12v-101.14zM220.302 367.426c-11.266 0-20.398-9.134-20.398-20.398v-285.578c0-11.264 9.132-20.398 20.398-20.398s20.398 9.134 20.398 20.398v285.578c0.002 11.264-9.132 20.398-20.398 20.398zM336.982 367.426c-11.266 0-20.398-9.134-20.398-20.398v-285.578c0-11.264 9.132-20.398 20.398-20.398s20.398 9.134 20.398 20.398v285.578c0 11.264-9.132 20.398-20.398 20.398zM453.66 367.426c-11.266 0-20.398-9.134-20.398-20.398v-285.578c0-11.264 9.132-20.398 20.398-20.398s20.398 9.134 20.398 20.398v285.578c0 11.264-9.132 20.398-20.398 20.398zM570.34 367.426c-11.264 0-20.398-9.134-20.398-20.398v-285.578c0-11.264 9.132-20.398 20.398-20.398 11.264 0 20.398 9.134 20.398 20.398v285.578c0 11.264-9.134 20.398-20.398 20.398zM687.018 367.426c-11.264 0-20.398-9.134-20.398-20.398v-285.578c0-11.264 9.132-20.398 20.398-20.398 11.264 0 20.398 9.134 20.398 20.398v285.578c0 11.264-9.134 20.398-20.398 20.398zM803.698 367.426c-11.264 0-20.398-9.134-20.398-20.398v-16.328c0-11.264 9.134-20.398 20.398-20.398s20.398 9.134 20.398 20.398v16.328c0 11.264-9.134 20.398-20.398 20.398zM803.698 273.592c-11.264 0-20.398-9.134-20.398-20.398v-191.742c0-11.264 9.134-20.398 20.398-20.398s20.398 9.134 20.398 20.398v191.742c0 11.264-9.134 20.398-20.398 20.398z" />
<glyph unicode="&#xe918;" glyph-name="arrow" d="M108.684 214.872c-7.774-7.774-17.020-14.078-26.895-18.28v-142.251c0-21.222 17.23-38.242 38.242-38.242h86.149c21.222 0 38.242 17.23 38.242 38.242v290.384c0 1.891-0.21 3.782-0.42 5.463l-135.317-135.317zM1000.849 769.376c-0.84 0-1.681 0-2.732 0-57.993-2.732-116.196-5.463-174.189-8.195-9.035-0.42-17.86-0.84-22.903-11.767-5.043-10.716 0.63-16.81 6.934-23.113 17.86-17.86 35.51-35.93 53.58-53.37l-368.128-368.128-217.893 217.893c-7.564 7.564-17.23 11.136-27.105 11.136s-19.541-3.782-27.105-11.136l-210.119-210.119c-14.918-14.918-14.918-39.292 0-54.211l9.455-9.455c7.564-7.564 17.23-11.136 27.105-11.136s19.541 3.782 27.105 11.136l173.558 173.558 217.893-217.893c7.564-7.564 17.23-11.136 27.105-11.136s19.541 3.782 27.105 11.136l404.479 404.479 52.53-52.109c4.833-4.833 9.665-10.086 16.599-10.086 2.521 0 5.463 0.84 8.615 2.521 10.506 5.673 12.817 14.918 13.237 25.214 2.521 56.732 5.253 113.254 7.985 169.986 0.63 17.020-6.514 24.794-23.113 24.794zM399.279 524.587c16.599-7.985 34.249-12.187 52.109-14.918 14.078-2.311 14.498-2.942 14.708-17.44 0-6.724 0.21-13.237 0.21-19.961 0-8.405 4.202-13.237 12.607-13.448 9.876-0.21 19.541-0.21 29.417 0 7.985 0.21 12.187 4.623 12.187 12.607 0 9.035 0.42 18.070 0 27.315s3.572 13.868 12.397 16.389c20.382 5.673 37.821 16.599 51.269 32.779 37.191 45.176 22.903 111.363-29.837 140.57-16.599 9.245-34.039 16.179-51.479 23.323-10.086 4.202-19.751 9.035-28.156 15.969-16.81 13.448-13.658 35.090 6.093 43.705 5.463 2.311 11.346 3.152 17.44 3.572 22.693 1.261 44.335-2.942 65.137-12.817 10.296-5.043 13.658-3.362 17.23 7.354 3.572 11.346 6.724 22.693 10.086 34.249 2.311 7.564-0.42 12.817-7.774 15.969-13.237 5.883-26.895 10.086-40.973 12.187-18.701 2.942-18.701 2.942-18.701 21.642-0.21 26.475-0.21 26.475-26.475 26.475-3.782 0-7.774 0-11.557 0-12.397-0.42-14.498-2.521-14.708-14.918-0.21-5.673 0-11.136 0-16.81 0-16.599-0.21-16.389-15.969-22.062-38.242-13.868-61.985-39.923-64.507-81.736-2.311-36.981 17.020-61.985 47.277-80.055 18.701-11.136 39.502-17.86 59.254-26.475 7.774-3.362 15.129-7.354 21.642-12.607 19.121-15.759 15.549-42.024-7.144-51.899-12.187-5.253-24.794-6.514-38.032-5.043-20.171 2.521-39.712 7.774-57.993 17.44-10.716 5.673-13.868 4.202-17.44-7.564-3.152-10.086-5.883-20.171-8.615-30.257-3.992-13.868-2.732-17.23 10.296-23.533zM422.392 179.572l-110.733 110.733c-3.362-5.673-5.253-12.397-5.253-19.331v-216.843c0-21.222 17.23-38.242 38.242-38.242h86.149c21.222 0 38.242 17.23 38.242 38.242v93.923c-13.868 3.992-26.685 11.557-37.191 22.062l-9.455 9.455zM564.222 179.572l-9.455-9.455c-6.934-6.934-14.918-12.607-23.743-16.81v-99.176c0-21.222 17.23-38.242 38.242-38.242h86.149c21.222 0 38.242 17.23 38.242 38.242v216.843c0 10.506-4.202 19.961-11.136 26.895l-118.297-118.297zM778.963 394.524l-23.533-23.533v-316.439c0-21.222 17.23-38.242 38.242-38.242h86.149c21.222 0 38.242 17.23 38.242 38.242v473.608c0 1.681-0.21 3.362-0.42 5.043l-138.679-138.679z" />
<glyph unicode="&#xe919;" glyph-name="chart" d="M662.435 743.362c-122.934 122.932-322.963 122.932-445.899 0-59.552-59.55-92.35-138.73-92.35-222.95s32.798-163.4 92.348-222.95c61.466-61.466 142.208-92.202 222.948-92.202 80.742 0 161.482 30.734 222.95 92.202 122.934 122.936 122.934 322.965 0.002 445.901zM639.521 320.375c-110.298-110.306-289.775-110.3-400.073 0-53.434 53.428-82.86 124.472-82.86 200.036s29.428 146.606 82.858 200.038c55.15 55.15 127.594 82.724 200.038 82.724s144.886-27.576 200.038-82.726c110.3-110.3 110.3-289.773-0.002-400.073zM785.506 664.907c-3.45 8.256-12.93 12.156-21.194 8.706-8.256-3.45-12.152-12.938-8.706-21.196 17.424-41.72 26.258-86.136 26.258-132.006 0-8.95 7.252-16.202 16.2-16.202s16.202 7.252 16.202 16.202c0.002 50.18-9.674 98.796-28.76 144.496zM745.331 737.178c-12.152 17.072-25.892 33.306-40.834 48.248-70.79 70.786-164.904 109.77-265.015 109.77-8.948 0-16.202-7.252-16.202-16.2s7.254-16.202 16.202-16.202c91.454 0 177.434-35.614 242.1-100.282 13.674-13.672 26.24-28.518 37.348-44.128 3.162-4.442 8.148-6.806 13.214-6.806 3.248 0 6.53 0.976 9.382 3.004 7.288 5.19 8.99 15.306 3.804 22.596zM1019.154 36.974l-122.194 122.194c-6.33 6.324-16.586 6.324-22.914 0l-25.202-25.202-87.294 87.294c75.894 81.564 117.524 187.152 117.524 299.151 0 117.416-45.726 227.808-128.752 310.837-83.028 83.026-193.418 128.752-310.837 128.752-117.42 0-227.808-45.726-310.837-128.752-171.394-171.396-171.394-450.277 0-621.673 83.026-83.024 193.416-128.75 310.837-128.75 112 0 217.584 41.63 299.149 117.524l87.294-87.294-25.202-25.202c-6.326-6.33-6.326-16.586 0-22.912l122.194-122.194c3.164-3.162 7.312-4.744 11.458-4.744s8.292 1.582 11.458 4.744l73.318 73.318c6.324 6.324 6.324 16.582 0 22.91zM727.407 232.489c-76.906-76.91-179.16-119.264-287.923-119.264s-211.018 42.354-287.925 119.264c-158.762 158.762-158.762 417.085 0 575.845 76.908 76.91 179.162 119.264 287.925 119.264s211.016-42.354 287.923-119.264c76.91-76.908 119.264-179.162 119.264-287.923s-42.354-211.016-119.264-287.923zM934.38-24.89l-99.284 99.284 25.182 25.182c0.006 0.006 0.016 0.012 0.022 0.020 0.006 0.006 0.012 0.016 0.020 0.022l25.182 25.182 99.284-99.284-50.406-50.406zM662.073 432.925h-18.362v251.656c0 8.95-7.252 16.202-16.2 16.202h-77.766c-8.95 0-16.202-7.252-16.202-16.202v-251.656h-45.362v173.892c0 8.95-7.254 16.2-16.202 16.2h-77.764c-8.948 0-16.202-7.252-16.202-16.2v-173.892h-45.362v199.814c0 8.95-7.254 16.202-16.202 16.202h-77.764c-8.948 0-16.202-7.252-16.202-16.202v-199.812h-18.362c-8.948 0-16.202-7.252-16.202-16.2s7.254-16.202 16.202-16.202h457.949c8.95 0 16.202 7.252 16.202 16.202s-7.248 16.198-16.198 16.198zM300.251 432.925h-45.362v183.612h45.362v-183.612zM455.781 432.925h-45.362v157.69h45.362v-157.69zM611.311 432.925h-45.362v235.456h45.362v-235.456z" />
<glyph unicode="&#xe91a;" glyph-name="square" d="M874.040 810.040c-96.706 96.704-225.28 149.96-362.040 149.96s-265.334-53.256-362.040-149.96c-96.704-96.706-149.96-225.28-149.96-362.040s53.256-265.334 149.96-362.040c96.706-96.704 225.28-149.96 362.040-149.96s265.334 53.256 362.040 149.96c96.704 96.706 149.96 225.28 149.96 362.040s-53.256 265.334-149.96 362.040zM512-23.204c-259.822 0-471.204 211.38-471.204 471.204s211.382 471.204 471.204 471.204 471.204-211.382 471.204-471.204-211.382-471.204-471.204-471.204zM512 879.598c-237.984 0-431.598-193.614-431.598-431.598s193.614-431.598 431.598-431.598 431.598 193.614 431.598 431.598-193.614 431.598-431.598 431.598zM860.14 270.554l-58.824 33.964c-9.754 5.63-22.23 2.29-27.864-7.466s-2.29-22.232 7.466-27.864l58.752-33.92c-29.87-45.848-69.088-85.066-114.934-114.934l-33.92 58.752c-5.634 9.758-18.11 13.1-27.864 7.466-9.756-5.632-13.1-18.108-7.466-27.864l33.964-58.824c-47.57-24.344-100.752-39.222-157.048-42.13v67.976c0 11.266-9.132 20.398-20.398 20.398s-20.398-9.132-20.398-20.398v-67.976c-56.296 2.908-109.476 17.786-157.048 42.13l33.964 58.824c5.634 9.756 2.29 22.232-7.466 27.864-9.754 5.63-22.232 2.29-27.864-7.466l-33.92-58.752c-45.85 29.87-85.066 69.086-114.934 114.934l58.752 33.92c9.756 5.632 13.1 18.108 7.466 27.864-5.632 9.756-18.11 13.1-27.864 7.466l-58.832-33.964c-24.344 47.57-39.222 100.752-42.13 157.048h67.976c11.266 0 20.398 9.132 20.398 20.398s-9.132 20.398-20.398 20.398h-67.976c2.908 56.296 17.786 109.476 42.13 157.048l58.824-33.964c3.212-1.854 6.72-2.736 10.18-2.736 7.050 0 13.906 3.658 17.684 10.202 5.634 9.756 2.29 22.232-7.466 27.864l-58.752 33.92c29.87 45.85 69.086 85.066 114.934 114.934l33.92-58.752c3.778-6.544 10.634-10.202 17.684-10.202 3.46 0 6.968 0.882 10.18 2.736 9.756 5.632 13.1 18.108 7.466 27.864l-33.96 58.828c47.568 24.344 100.752 39.222 157.048 42.13v-67.976c0-11.266 9.132-20.398 20.398-20.398s20.398 9.132 20.398 20.398v67.976c56.296-2.908 109.476-17.786 157.048-42.13l-33.964-58.824c-5.634-9.756-2.29-22.232 7.466-27.864 3.212-1.854 6.72-2.736 10.18-2.736 7.050 0 13.906 3.658 17.684 10.202l33.92 58.752c45.85-29.87 85.066-69.086 114.934-114.934l-58.752-33.92c-9.756-5.632-13.1-18.108-7.466-27.864 3.778-6.544 10.634-10.202 17.684-10.202 3.46 0 6.968 0.882 10.18 2.736l58.824 33.964c24.344-47.57 39.222-100.752 42.13-157.048h-67.976c-11.266 0-20.398-9.132-20.398-20.398s9.132-20.398 20.398-20.398h67.976c-2.904-56.3-17.78-109.48-42.126-157.052zM532.398 504.792v130.874c0 11.266-9.132 20.398-20.398 20.398s-20.398-9.132-20.398-20.398v-130.874c-23.266-8.382-39.948-30.672-39.948-56.792 0-14.836 5.392-28.43 14.306-38.948l-32.378-56.082c-5.634-9.756-2.29-22.232 7.466-27.864 3.212-1.856 6.72-2.736 10.18-2.736 7.050 0 13.906 3.658 17.684 10.202l32.362 56.054c3.484-0.628 7.064-0.974 10.726-0.974 33.276 0 60.346 27.070 60.346 60.346 0 26.12-16.682 48.41-39.948 56.794zM512 428.45c-10.78 0-19.55 8.77-19.55 19.55s8.77 19.55 19.55 19.55c10.78 0 19.55-8.77 19.55-19.55s-8.77-19.55-19.55-19.55zM512 723.378c-11.266 0-20.398-9.132-20.398-20.398v-8.16c0-11.266 9.132-20.398 20.398-20.398s20.398 9.132 20.398 20.398v8.16c0 11.266-9.132 20.398-20.398 20.398z" />
<glyph unicode="&#xe91b;" glyph-name="graphic-8" d="M214.079-64h-170.049c-8.594 0-15.569 6.975-15.569 15.569v548.074c0 8.594 6.975 15.569 15.569 15.569h170.049c8.594 0 15.569-6.975 15.569-15.569v-548.074c0-8.594-6.975-15.569-15.569-15.569zM59.6-32.861h138.91v516.936h-138.91v-516.936zM597.118-64h-170.174c-8.594 0-15.569 6.975-15.569 15.569v795.13c0 8.594 6.975 15.569 15.569 15.569h170.174c8.594 0 15.569-6.975 15.569-15.569v-795.13c0-8.594-6.975-15.569-15.569-15.569zM442.514-32.861h139.035v763.991h-139.035v-763.991zM979.97-64h-170.174c-8.594 0-15.569 6.975-15.569 15.569v992.861c0 8.594 6.975 15.569 15.569 15.569h170.174c8.594 0 15.569-6.975 15.569-15.569v-992.861c0-8.594-6.975-15.569-15.569-15.569zM825.365-32.861h139.035v961.722h-139.035v-961.722z" />
<glyph unicode="&#xe91c;" glyph-name="graphic-7" d="M136.533 686.933h256c9.421 0 17.067 7.629 17.067 17.067s-7.646 17.067-17.067 17.067h-256c-9.421 0-17.067-7.629-17.067-17.067s7.646-17.067 17.067-17.067zM136.533 738.133h153.6c9.421 0 17.067 7.629 17.067 17.067s-7.646 17.067-17.067 17.067h-153.6c-9.421 0-17.067-7.629-17.067-17.067s7.646-17.067 17.067-17.067zM409.6 652.8c0 9.438-7.646 17.067-17.067 17.067h-256c-9.421 0-17.067-7.629-17.067-17.067s7.646-17.067 17.067-17.067h256c9.421 0 17.067 7.629 17.067 17.067zM1024 891.733h-494.933v51.2c0 9.438-7.646 17.067-17.067 17.067s-17.067-7.629-17.067-17.067v-51.2h-494.933v-716.8h470.801l-209.801-209.801c-6.673-6.673-6.673-17.459 0-24.132 3.328-3.328 7.697-5.001 12.066-5.001s8.738 1.673 12.066 5.001l209.801 209.801v-163.601c0-9.438 7.646-17.067 17.067-17.067s17.067 7.629 17.067 17.067v163.601l209.801-209.801c3.328-3.328 7.697-5.001 12.066-5.001s8.738 1.673 12.066 5.001c6.673 6.673 6.673 17.459 0 24.132l-209.801 209.801h470.801v716.8zM989.867 209.067h-955.733v648.533h955.733v-648.533zM699.733 618.667h78.268l-204.561-204.561-141.534 141.534c-6.673 6.673-17.459 6.673-24.132 0l-215.040-215.040c-6.673-6.673-6.673-17.459 0-24.132 3.328-3.328 7.697-5.001 12.066-5.001s8.738 1.673 12.066 5.001l202.974 202.974 141.534-141.534c3.328-3.328 7.697-5.001 12.066-5.001s8.738 1.673 12.066 5.001l216.627 216.627v-78.268c0-9.438 7.629-17.067 17.067-17.067s17.067 7.629 17.067 17.067v119.467c0 2.219-0.444 4.437-1.314 6.519-1.724 4.181-5.052 7.509-9.233 9.233-2.082 0.87-4.301 1.314-6.519 1.314h-119.467c-9.421 0-17.067-7.629-17.067-17.067s7.646-17.067 17.067-17.067z" />
<glyph unicode="&#xe91d;" glyph-name="connection" d="M1011.63 656.612c-13.119 24.505-34.993 42.428-61.596 50.476-26.603 8.053-54.748 5.256-79.248-7.863-24.5-13.123-42.428-34.998-50.476-61.601-5.364-17.72-5.801-36.108-1.696-53.661l-112.352-60.162c-34.172 47.977-87.441 81.4-148.644 89.101v95.877c44.291 11.946 76.984 52.447 76.984 100.46 0 57.374-46.678 104.051-104.051 104.051s-104.056-46.678-104.056-104.056c0-48.013 32.697-88.514 76.984-100.46v-95.868c-78.17-9.839-143.434-61.641-172.432-132.106l-122.962 33.13c0.027 18.031-4.565 35.842-13.804 51.888-13.863 24.090-36.279 41.341-63.112 48.572-55.416 14.932-112.613-18.004-127.541-73.402-7.231-26.837-3.577-54.883 10.286-78.969s36.279-41.341 63.112-48.572c9.009-2.427 18.149-3.627 27.239-3.627 17.977 0 35.729 4.705 51.735 13.913 16.046 9.234 28.966 22.321 38.002 37.926l122.967-33.135c-1.326-9.659-2.071-19.497-2.071-29.517 0-49.718 16.958-95.525 45.333-132.043l-90.157-90.157c-39.762 22.845-91.46 17.409-125.403-16.525-40.569-40.569-40.569-106.582 0-147.156 20.287-20.287 46.93-30.428 73.578-30.428 26.643 0 53.291 10.141 73.578 30.428 33.938 33.942 39.374 85.641 16.525 125.398l90.157 90.157c36.518-28.376 82.321-45.333 132.043-45.333s95.525 16.958 132.043 45.333l90.157-90.157c-22.845-39.762-17.413-91.46 16.525-125.398 20.287-20.287 46.93-30.428 73.578-30.428s53.291 10.146 73.578 30.428c40.569 40.569 40.569 106.582 0 147.156-33.938 33.938-85.641 39.369-125.398 16.525l-90.157 90.157c28.376 36.518 45.333 82.321 45.333 132.043 0 27.162-5.098 53.147-14.305 77.11l112.271 60.116c12.334-13.15 27.879-22.976 45.604-28.339 9.961-3.013 20.143-4.507 30.266-4.507 16.908 0 33.658 4.168 48.983 12.374 24.505 13.119 42.428 34.993 50.476 61.596s5.247 54.753-7.872 79.253zM943.461 563.492c-11.752-6.298-25.254-7.637-38.016-3.771-12.762 3.857-23.255 12.46-29.548 24.216-6.298 11.752-7.633 25.258-3.771 38.020 3.857 12.762 12.46 23.255 24.216 29.548 7.353 3.938 15.388 5.937 23.499 5.937 4.854 0 9.74-0.717 14.517-2.161 12.762-3.857 23.255-12.46 29.548-24.216 6.298-11.752 7.633-25.254 3.771-38.016-3.857-12.771-12.46-23.264-24.216-29.557zM692.065 399.013c0-89.060-72.459-161.519-161.519-161.519s-161.519 72.459-161.519 161.519 72.459 161.519 161.519 161.519 161.519-72.459 161.519-161.519zM480.629 809.235c0 27.527 22.394 49.917 49.917 49.917s49.917-22.394 49.917-49.917c0-27.523-22.394-49.917-49.917-49.917s-49.917 22.394-49.917 49.917zM91.108 465.72c-12.875 3.469-23.625 11.747-30.275 23.3-6.654 11.558-8.404 25.010-4.935 37.885 7.159 26.58 34.61 42.374 61.186 35.215 12.875-3.469 23.625-11.743 30.279-23.3 6.65-11.558 8.4-25.010 4.931-37.885-7.159-26.58-34.601-42.374-61.186-35.215zM253.544 51.415c-19.457-19.461-51.13-19.461-70.596 0-19.461 19.461-19.461 51.13 0 70.596 9.731 9.731 22.515 14.594 35.3 14.594 12.78 0 25.565-4.868 35.296-14.594 19.461-19.466 19.461-51.135 0-70.596zM878.143 122.011c19.461-19.461 19.461-51.13 0-70.596-19.457-19.461-51.13-19.461-70.596 0-19.461 19.461-19.461 51.13 0 70.596 9.731 9.731 22.515 14.594 35.3 14.594 12.78 0 25.565-4.863 35.296-14.594z" />
<glyph unicode="&#xe91e;" glyph-name="graphic-6" d="M939.857 51.895h-823.963v823.963c0 18.257-14.288 32.546-32.546 32.546s-32.546-14.288-32.546-32.546v-856.509c0-18.257 14.288-32.546 32.546-32.546h856.509c18.257 0 32.546 14.288 32.546 32.546s-14.288 32.546-32.546 32.546zM431.033 177.315v468.341c0 18.257-14.288 32.546-32.546 32.546s-32.546-14.288-32.546-32.546v-468.341c0-18.257 14.288-32.546 32.546-32.546s32.546 14.288 32.546 32.546zM273.86 177.315v468.341c0 18.257-14.288 32.546-32.546 32.546s-32.546-14.288-32.546-32.546v-468.341c0-18.257 14.288-32.546 32.546-32.546s32.546 14.288 32.546 32.546zM745.377 177.315v468.341c0 18.257-14.288 32.546-32.546 32.546s-32.546-14.288-32.546-32.546v-468.341c0-18.257 14.288-32.546 32.546-32.546s32.546 14.288 32.546 32.546zM902.549 177.315v234.171c0 18.257-14.288 32.546-32.546 32.546s-32.546-14.288-32.546-32.546v-234.171c0-18.257 14.288-32.546 32.546-32.546s32.546 14.288 32.546 32.546zM588.205 177.315v234.171c0 18.257-14.288 32.546-32.546 32.546s-32.546-14.288-32.546-32.546v-234.171c0-18.257 14.288-32.546 32.546-32.546s32.546 14.288 32.546 32.546z" />
<glyph unicode="&#xe91f;" glyph-name="social" d="M608.201 411.979l2.141 34.241c27.958-9.826 57.256-14.807 87.438-14.807 145.733 0 264.294 118.561 264.294 264.294s-118.561 264.294-264.294 264.294c-140.16 0-255.166-109.674-263.759-247.706h-82.126c-39.182 0-75.531-15.725-102.358-44.282-26.825-28.555-40.252-65.817-37.808-104.917l9.444-151.114c0.177-65.394 27.721-123.891 70.767-162.535v-26.436l-29.156-43.733-136.484-37.225c-37.901-10.337-64.373-44.994-64.373-84.28v-69.798c0-28.659 23.315-51.974 51.974-51.974h601.572c28.659 0 51.974 23.315 51.974 51.974v69.798c0 39.288-26.471 73.945-64.373 84.28l-136.484 37.225-29.156 43.733v26.436c43.046 38.642 70.587 97.138 70.767 162.533zM414.687 151.113l-88.309 73.591c26.491-14.889 56.517-23.304 88.309-23.304s61.818 8.415 88.309 23.304l-88.309-73.591zM312.088 193.429l78.025-65.021-42.67-42.667c-0.111-0.111-0.391-0.361-0.889-0.321-0.52 0.051-0.725 0.356-0.812 0.487l-52.666 79.001 19.011 28.522zM414.687 24.467c1.391 0 2.765 0.071 4.127 0.179l11.379-55.471h-31.012l11.379 55.471c1.362-0.108 2.736-0.179 4.127-0.179zM433.486 76.441c0-10.366-8.433-18.799-18.799-18.799s-18.799 8.433-18.799 18.799v10.822l18.799 18.799 18.799-18.799v-10.822zM439.258 128.406l78.025 65.021 19.014-28.522-52.666-79.001c-0.086-0.133-0.292-0.436-0.812-0.489-0.502-0.038-0.781 0.21-0.889 0.321l-42.672 42.67zM616.222 540.366c20.896 7.929 42.663 12.726 64.97 14.309v-87.962c-24.189 6.188-47.108 25.808-66.018 56.853l1.048 16.8zM817.36 521.67c6.027-3.665 11.899-7.619 17.603-11.846-12.498-9.249-25.961-17.264-40.204-23.875 6.171 7.977 12.025 16.775 17.51 26.372 1.747 3.057 3.444 6.173 5.091 9.349zM714.367 466.733v87.874c25.335-1.838 50.072-7.831 73.272-17.689-19.235-37.163-44.912-62.869-73.272-70.185zM714.367 587.903v91.216h108.031c-1.654-40.869-9.358-79.186-21.418-111.806-27.38 11.682-56.647 18.695-86.613 20.591zM714.367 712.294v91.216c29.966 1.898 59.233 8.909 86.613 20.591 12.060-32.62 19.761-70.937 21.418-111.806h-108.031zM714.367 836.806v87.874c28.36-7.316 54.038-33.022 73.272-70.185-23.2-9.857-47.938-15.851-73.272-17.689zM812.271 879.091c-5.485 9.596-11.337 18.394-17.51 26.372 14.243-6.611 27.703-14.626 40.204-23.875-5.704-4.226-11.576-8.179-17.603-11.846-1.65 3.176-3.346 6.292-5.091 9.349zM578.199 869.742c-6.027 3.665-11.899 7.619-17.605 11.843 12.5 9.249 25.961 17.264 40.204 23.877-6.171-7.977-12.025-16.775-17.51-26.372-1.745-3.057-3.441-6.173-5.089-9.349zM681.192 924.68v-87.874c-25.332 1.838-50.072 7.831-73.272 17.689 19.235 37.163 44.912 62.869 73.272 70.185zM681.192 803.509v-91.216h-108.031c1.657 40.869 9.358 79.186 21.418 111.806 27.383-11.682 56.647-18.695 86.613-20.591zM573.044 674.724c-0.031 1.349-0.058 2.84-0.082 4.395h108.23v-91.209c-21.621-1.34-42.813-5.31-63.351-11.861-0.936 34.316-14.163 66.58-38.007 91.963-2.192 2.333-4.472 4.552-6.79 6.712zM860.693 531.933c-9.475 7.442-19.394 14.197-29.687 20.235 14.462 37.755 22.913 81.274 24.572 126.949h72.722c-4.087-57.335-29.176-108.953-67.606-147.184zM928.297 712.294h-72.722c-1.659 45.675-10.11 89.196-24.572 126.949 10.293 6.038 20.215 12.792 29.687 20.235 38.432-38.229 63.521-89.847 67.606-147.184zM534.866 859.48c9.475-7.442 19.394-14.197 29.687-20.235-14.462-37.755-22.913-81.276-24.572-126.952h-72.722c4.087 57.337 29.176 108.958 67.606 147.186zM273.718 645.296c20.491 21.811 48.254 33.823 78.18 33.823h125.58c29.924 0 57.689-12.012 78.18-33.823 20.489-21.809 30.742-50.269 28.878-80.133l-3.121-49.922c-14.044 28.526-28.586 47.562-29.758 49.072-4.554 5.879-12.465 8.015-19.343 5.22-83.32-33.75-239.91-34.172-241.483-34.172-3.716 0-7.325-1.247-10.247-3.545-1.157-0.909-16.484-13.217-31.383-36.45l-4.361 69.796c-1.867 29.869 8.389 58.326 28.878 80.135zM254.359 411.877c4.985 49.424 32.602 80.409 42.878 90.36 29.84 0.378 153.918 3.66 235.117 31.894 13.646-20.571 42.678-70.353 42.678-121.518 0-98.171-71.93-178.039-160.346-178.039-88.192 0-159.967 79.469-160.328 177.302zM95.102-12.026v69.798c0 24.368 16.419 45.863 39.929 52.277l130.939 35.712 52.171-78.257c5.722-8.579 14.887-14.079 25.147-15.097 1.143-0.113 2.28-0.168 3.415-0.168 6.934 0 13.635 2.108 19.31 6 2.886-7.69 7.542-14.52 13.473-19.989l-14.17-69.075h-146.361v54.186c0 9.163-7.425 16.587-16.587 16.587s-16.587-7.425-16.587-16.587v-54.186h-71.879c-10.366 0-18.799 8.433-18.799 18.799zM734.272 57.772v-69.798c0-10.366-8.433-18.799-18.799-18.799h-71.879v54.186c0 9.163-7.425 16.587-16.587 16.587s-16.587-7.425-16.587-16.587v-54.186h-146.361l-14.168 69.070c5.932 5.472 10.587 12.299 13.473 19.989 5.675-3.893 12.374-6 19.31-6 1.135 0 2.274 0.055 3.415 0.168 10.26 1.017 19.425 6.518 25.147 15.099l52.171 78.255 130.939-35.712c23.508-6.409 39.927-27.907 39.927-52.273z" />
<glyph unicode="&#xe920;" glyph-name="graphic-5" d="M1006.933 12.8v665.6h-204.8v-665.6h-51.2v529.067h-204.8v-529.067h-51.2v392.533h-204.8v-392.533h-51.2v238.933h-204.8v-238.933h-17.067c-9.421 0-17.067-7.629-17.067-17.067s7.646-17.067 17.067-17.067h989.867c9.421 0 17.067 7.629 17.067 17.067s-7.646 17.067-17.067 17.067zM68.267 12.8v204.8h136.533v-204.8h-136.533zM324.267 12.8v358.4h136.533v-358.4h-136.533zM580.267 12.8v494.933h136.533v-494.933h-136.533zM836.267 12.8v631.467h136.533v-631.467h-136.533zM137.045 485.035c2.884 0 5.837 0.734 8.516 2.287l618.991 357.376-38.741-85.163c-3.908-8.585-0.119-18.705 8.465-22.596 2.287-1.058 4.693-1.536 7.066-1.536 6.485 0 12.681 3.721 15.548 10.001l60.791 133.632c0.188 0.427 0.154 0.887 0.307 1.331 0.324 0.905 0.58 1.775 0.751 2.731 0.085 0.478 0.358 0.87 0.393 1.365 0.017 0.205-0.068 0.375-0.051 0.58 0.034 0.649-0.034 1.246-0.068 1.894-0.051 0.939-0.205 1.826-0.41 2.765-0.137 0.649-0.171 1.314-0.393 1.946-0.205 0.614-0.563 1.126-0.836 1.724-0.222 0.393-0.222 0.853-0.461 1.263s-0.649 0.649-0.922 1.041c-0.358 0.529-0.631 1.092-1.058 1.57-0.444 0.512-1.007 0.87-1.519 1.331-0.7 0.631-1.399 1.212-2.185 1.724-0.529 0.341-1.007 0.717-1.587 1.007-0.188 0.085-0.29 0.256-0.478 0.341-0.427 0.188-0.887 0.154-1.314 0.307-0.939 0.341-1.86 0.58-2.833 0.751-0.444 0.085-0.802 0.341-1.263 0.375l-146.125 14.165c-9.472 0.956-17.732-5.973-18.637-15.326-0.922-9.387 5.956-17.732 15.326-18.637l93.116-9.028-618.94-357.376c-8.175-4.71-10.957-15.155-6.246-23.313 3.157-5.478 8.892-8.533 14.797-8.533z" />
<glyph unicode="&#xe921;" glyph-name="graphic-4" d="M1000.914 742.707l-249.168 217.293-249.19-217.293h136.345c-45.905-281.99-306.457-501.345-602.955-454.706-13.041 2.030-18.324-15.518-5.506-19.971 368.986-128.416 794.080 82.585 855.578 474.677h114.896zM724.569 378.377c-38.306-35.415-81.15-66.27-127.544-92.076v-350.3h127.544v442.377zM405.708-64h127.544v319.063c-40.527-17.272-83.191-30.887-127.544-40.41v-278.652zM788.341-64h127.544v774.821h-3.22c-20.014-98.889-63.464-188.394-124.324-263.985v-510.836zM150.619 206.149c-43.312 6.335-85.965 16.496-127.544 30.77v-300.92h127.544v270.149zM214.391-64h127.544v267.928c-29.006-3.518-58.564-5.367-88.59-5.367-13.031 0-26.008 0.489-38.954 1.19v-263.751z" />
<glyph unicode="&#xe922;" glyph-name="monitor" d="M961.69 908.191h-899.335c-34.32 0-62.355-28.080-62.355-62.31v-646.619c0-34.187 28.035-62.31 62.355-62.31h899.335c34.275 0 62.31 28.123 62.31 62.31v646.619c0 34.23-28.035 62.31-62.31 62.31zM946.002 245.094h-868.004v575.695h868.004v-575.695zM396.628 107.377l-117.68-119.568h467.816l-117.68 119.568zM210.531 360.531c22.983 0 41.702 18.677 41.702 41.658 0 4.174-1.23 7.953-2.373 11.777 53.302 42.976 147.473 118.733 190.404 151.822 6.767-4.789 14.633-8.218 23.553-8.218 7.425 0 14.018 2.461 20.037 5.845 27.595-23.466 74.527-63.365 107.836-91.708-0.44-2.416-1.406-4.569-1.406-7.118 0-23.026 18.719-41.702 41.745-41.702s41.745 18.677 41.745 41.702c0 4.087-1.23 7.823-2.328 11.557l107.836 97.378c5.8-3.031 12.040-5.185 19.072-5.185 23.026 0 41.702 18.677 41.702 41.702s-18.677 41.702-41.702 41.702-41.658-18.677-41.658-41.745c0-5.492 1.186-10.721 3.119-15.511-30.146-27.2-76.635-69.21-105.638-95.4-6.46 4.174-13.755 7.25-22.103 7.25-9.843 0-18.457-3.911-25.574-9.579-27.552 23.421-72.111 61.3-103.793 88.237 1.67 4.482 2.856 9.183 2.856 14.28 0 23.026-18.677 41.702-41.702 41.702s-41.702-18.677-41.702-41.702c0-5.097 1.23-9.843 2.901-14.325l-191.414-148.921c-6.68 4.569-14.37 7.91-23.071 7.91-23.026 0-41.702-18.677-41.702-41.702-0.045-23.030 18.632-41.706 41.658-41.706z" />
<glyph unicode="&#xe923;" glyph-name="business-1" d="M1023.99 661.184c-0.004 7.996-4.668 15.264-11.962 18.572l-491.602 222.96c-5.404 2.45-11.542 2.388-16.85-0.022 0 0.002-0.004 0.022-0.004 0.022l-491.6-222.96c-7.294-3.308-11.96-10.58-11.962-18.578h-0.010v-427.434c0-8.018 4.7-15.292 12.008-18.592l491.602-221.874c2.678-1.21 5.538-1.808 8.388-1.808 2.872 0 5.734 0.612 8.388 1.81l0.004-0.004 0.064 0.028c0.008 0.004 0.018 0.008 0.026 0.012l491.512 221.832c7.308 3.298 12.008 10.574 12.008 18.592v427.44c0.002 0-0.008 0.004-0.010 0.004zM491.604 43.456l-450.806 203.462v383.182l450.804-195.486v-391.158zM491.604 479.086l-380.408 164.956h380.408v-164.956zM491.604 684.84h-369.652l369.652 167.65v-167.65zM532.4 644.040h183.586c11.264 0 20.398 9.134 20.398 20.398s-9.134 20.398-20.398 20.398h-183.586v167.654l420.894-190.892-420.894-182.514v164.956zM983.206 246.918l-450.806-203.46v391.16l450.804 195.482v-383.182zM801.66 684.84h-14.278c-11.264 0-20.398-9.134-20.398-20.398s9.134-20.398 20.398-20.398h14.278c11.264 0 20.398 9.134 20.398 20.398s-9.134 20.398-20.398 20.398zM859.372 459.622c-5.744 3.77-13.004 4.392-19.31 1.66l-155.634-67.486c-7.456-3.236-12.282-10.586-12.282-18.716v-138.072c0-6.928 3.514-13.38 9.332-17.134 3.35-2.164 7.198-3.264 11.068-3.264 2.85 0 5.712 0.598 8.39 1.808l155.632 70.244c7.31 3.298 12.008 10.574 12.008 18.592v135.316c0.002 6.87-3.46 13.282-9.204 17.052zM827.782 320.424l-114.836-51.83v93.1l114.836 49.794v-91.064z" />
<glyph unicode="&#xe924;" d="M102.4 704h256c9.421 0 17.067 7.629 17.067 17.067s-7.646 17.067-17.067 17.067h-256c-9.421 0-17.067-7.629-17.067-17.067s7.646-17.067 17.067-17.067z" />
<glyph unicode="&#xe925;" d="M102.4 772.267h153.6c9.421 0 17.067 7.629 17.067 17.067s-7.646 17.067-17.067 17.067h-153.6c-9.421 0-17.067-7.629-17.067-17.067s7.646-17.067 17.067-17.067z" />
<glyph unicode="&#xe926;" d="M375.467 652.8c0 9.438-7.646 17.067-17.067 17.067h-256c-9.421 0-17.067-7.629-17.067-17.067s7.646-17.067 17.067-17.067h256c9.421 0 17.067 7.629 17.067 17.067z" />
<glyph unicode="&#xe927;" d="M1024 891.733h-494.933v51.2c0 9.438-7.646 17.067-17.067 17.067s-17.067-7.629-17.067-17.067v-51.2h-494.933v-716.8h470.801l-209.801-209.801c-6.673-6.673-6.673-17.459 0-24.132 3.328-3.328 7.697-5.001 12.066-5.001s8.738 1.673 12.066 5.001l209.801 209.801v-163.601c0-9.438 7.646-17.067 17.067-17.067s17.067 7.629 17.067 17.067v163.601l209.801-209.801c3.328-3.328 7.697-5.001 12.066-5.001s8.738 1.673 12.066 5.001c6.673 6.673 6.673 17.459 0 24.132l-209.801 209.801h470.801v716.8zM989.867 209.067h-955.733v648.533h955.733v-648.533z" />
<glyph unicode="&#xe928;" d="M478.191 421.257c-10.155 6.007-21.828 9.677-34.458 9.677-8.055 0-15.667-1.655-22.835-4.215l-32.58 32.563c2.56 7.185 4.215 14.797 4.215 22.852 0 37.649-30.618 68.267-68.267 68.267s-68.267-30.618-68.267-68.267c0-8.055 1.655-15.667 4.215-22.852l-32.58-32.563c-7.168 2.56-14.78 4.215-22.835 4.215-37.649 0-68.267-30.618-68.267-68.267s30.618-68.267 68.267-68.267 68.267 30.618 68.267 68.267c0 17.015-6.485 32.41-16.828 44.373l23.637 23.637c11.981-10.325 27.375-16.811 44.39-16.811s32.41 6.485 44.373 16.811l23.637-23.637c-10.325-11.964-16.811-27.358-16.811-44.373 0-37.649 30.618-68.267 68.267-68.267s68.267 30.618 68.267 68.267c0 12.629-3.669 24.303-9.677 34.458l118.903 118.886c11.964-10.325 27.358-16.811 44.373-16.811s32.41 6.485 44.373 16.811l74.854-74.837c-10.342-11.964-16.828-27.358-16.828-44.373 0-37.649 30.618-68.267 68.267-68.267s68.267 30.618 68.267 68.267-30.618 68.267-68.267 68.267c-8.055 0-15.667-1.655-22.835-4.215l-83.78 83.763c2.56 7.185 4.215 14.797 4.215 22.852 0 37.649-30.618 68.267-68.267 68.267s-68.267-30.618-68.267-68.267c0-8.055 1.655-15.667 4.215-22.852l-123.358-123.358zM204.8 328.533c-18.825 0-34.133 15.309-34.133 34.133s15.309 34.133 34.133 34.133 34.133-15.309 34.133-34.133-15.309-34.133-34.133-34.133zM324.267 448c-18.825 0-34.133 15.309-34.133 34.133s15.309 34.133 34.133 34.133 34.133-15.309 34.133-34.133-15.309-34.133-34.133-34.133zM443.733 328.533c-18.825 0-34.133 15.309-34.133 34.133s15.309 34.133 34.133 34.133 34.133-15.309 34.133-34.133-15.309-34.133-34.133-34.133zM870.4 396.8c0-18.825-15.309-34.133-34.133-34.133s-34.133 15.309-34.133 34.133 15.309 34.133 34.133 34.133 34.133-15.309 34.133-34.133zM665.6 601.6c18.825 0 34.133-15.309 34.133-34.133s-15.309-34.133-34.133-34.133-34.133 15.309-34.133 34.133 15.309 34.133 34.133 34.133z" />
<glyph unicode="&#xe929;" glyph-name="placeholder2" d="M893.624-27.932l-134.998 285.562c-2.694 5.698-7.362 10.064-12.96 12.446l-67.16 29.898 116.37 195.036c0.278 0.468 0.54 0.942 0.79 1.426 23.136 45.158 34.868 93.956 34.868 145.030 0 85.918-33.692 166.466-94.87 226.804-61.168 60.324-142.204 92.906-228.174 91.698-83.496-1.158-162.112-34.696-221.37-94.44-59.252-59.74-92.156-138.626-92.652-222.132-0.304-51.030 11.754-101.846 34.862-146.958 0.248-0.482 0.51-0.958 0.788-1.426l116.368-195.034-67.548-30.062c-5.526-2.458-9.986-6.816-12.57-12.284l-134.994-285.564c-4.518-9.55-2.612-20.906 4.776-28.46 7.386-7.554 18.69-9.718 28.344-5.422l169.116 75.292 169.116-75.292c6.542-2.91 14.012-2.91 20.554 0l169.116 75.292 169.116-75.292c3.304-1.47 6.802-2.186 10.27-2.186 6.662 0 13.216 2.636 18.074 7.606 7.382 7.556 9.286 18.908 4.768 28.462zM272.946 520.188c-19.46 38.264-29.198 79.61-28.94 122.906 0.856 144.858 119.372 264.34 264.188 266.346 72.332 0.972 140.526-26.398 191.986-77.152 51.476-50.766 79.822-118.534 79.822-190.824 0-42.718-9.738-83.514-28.946-121.276l-217.356-364.296c-6.636-11.12-17.384-12.32-21.698-12.32-4.316 0-15.064 1.2-21.698 12.32l-217.358 364.296zM701.668 64.218c-6.542 2.91-14.012 2.91-20.554 0l-169.116-75.292-169.116 75.292c-6.542 2.91-14.012 2.91-20.554 0l-117.156-52.16 101.876 215.498 64.516 28.712 75.336-126.266c13.808-23.144 38.144-36.962 65.094-36.962s51.286 13.818 65.094 36.96l75.336 126.266 64.522-28.722 101.87-215.488-117.148 52.162zM512.008 756.786c-63.588 0-115.318-51.73-115.318-115.316s51.73-115.316 115.318-115.316c63.586-0.002 115.316 51.73 115.316 115.316s-51.73 115.316-115.316 115.316zM512.008 576.686c-35.722-0.002-64.786 29.058-64.786 64.784 0 35.722 29.062 64.784 64.786 64.784 35.722 0 64.784-29.062 64.784-64.784s-29.062-64.784-64.784-64.784z" />
<glyph unicode="&#xe92a;" glyph-name="users2" d="M938.906 185.361l-163.038 81.51c-15.377 7.697-24.934 23.159-24.934 40.363v57.702c3.908 4.779 8.021 10.223 12.271 16.23 21.146 29.867 38.093 63.113 50.415 98.97 24.081 11.042 39.714 34.85 39.714 61.73v68.267c0 16.435-6.144 32.358-17.067 44.8v90.778c0.956 9.387 4.71 65.263-35.703 111.36-35.055 39.987-91.938 60.262-169.097 60.262s-134.042-20.275-169.097-60.245c-24.491-27.938-32.734-59.409-35.226-82.005-29.252 15.121-63.727 22.784-102.878 22.784-177.306 0-187.631-151.125-187.733-153.6v-78.148c-11.059-12.049-17.067-25.958-17.067-39.765v-58.948c0-18.415 8.243-35.584 22.374-47.189 14.080-53.077 48.708-93.184 62.191-107.264v-46.814c0-13.431-7.305-25.754-19.985-32.683l-113.545-71.219c-43.486-23.723-70.502-69.239-70.502-118.767v-64.802h1024v69.001c0 58.675-32.614 111.445-85.094 137.694zM238.933 50.995v-38.195h-204.8v30.669c0 37.035 20.207 71.066 53.606 89.31l113.527 71.219c22.75 12.407 36.881 36.198 36.881 62.14v61.286l-5.427 5.069c-0.444 0.41-45.79 43.247-59.187 101.632l-1.553 6.758-5.837 3.755c-7.851 5.086-12.544 13.602-12.544 22.767v58.948c0 6.144 4.181 13.449 11.452 20.036l5.615 5.069-0.034 91.819c0.307 4.898 9.199 120.457 153.634 120.457 40.841 0 75.23-9.438 102.4-28.058v-80.742c-10.923-12.442-17.067-28.365-17.067-44.8v-68.267c0-5.188 0.597-10.291 1.724-15.241 0.461-1.98 1.382-3.789 2.014-5.7 0.939-2.867 1.69-5.82 3.004-8.533 0.017-0.034 0.034-0.051 0.051-0.085 4.369-9.011 10.735-17.067 18.756-23.501 0.085-0.324 0.188-0.614 0.273-0.922 1.024-3.908 2.099-7.799 3.26-11.605l1.382-4.454c0.239-0.785 0.529-1.587 0.785-2.372 0.597-1.843 1.178-3.669 1.792-5.478 1.024-2.987 2.099-6.076 3.345-9.438 0.529-1.399 1.109-2.662 1.655-4.045 1.399-3.567 2.799-7.014 4.267-10.428 0.358-0.819 0.666-1.707 1.024-2.509l0.956-2.15c0.444-0.99 0.905-1.877 1.348-2.85 1.673-3.652 3.311-7.185 5.018-10.598 0.273-0.546 0.529-1.143 0.802-1.69 1.075-2.133 2.15-4.147 3.226-6.195 1.843-3.516 3.652-6.827 5.461-10.035 0.887-1.57 1.758-3.106 2.628-4.591 2.458-4.198 4.796-8.055 7.066-11.639 0.495-0.768 0.973-1.57 1.451-2.304 4.13-6.4 7.714-11.588 10.684-15.633 0.785-1.075 1.468-1.997 2.133-2.901 0.375-0.495 0.887-1.212 1.212-1.655v-56.474c0-16.521-9.011-31.676-23.501-39.595l-45.158-24.627-7.868 0.7-3.209-6.741-96.017-52.378c-49.493-27.034-80.23-78.814-80.23-135.202zM989.867 12.8h-716.8v38.195c0 43.878 23.927 84.207 62.447 105.199l152.252 83.046c25.481 13.909 41.301 40.585 41.301 69.581v68.591l-3.311 3.959-0.649 0.768c-0.034 0.051-1.092 1.331-2.816 3.584-0.102 0.137-0.205 0.273-0.324 0.41-0.905 1.178-1.963 2.594-3.174 4.284-0.017 0.034-0.034 0.051-0.051 0.085-2.543 3.533-5.734 8.124-9.284 13.653-0.085 0.119-0.154 0.256-0.239 0.375-1.673 2.611-3.447 5.461-5.257 8.482-0.137 0.222-0.273 0.444-0.41 0.683-3.857 6.468-7.953 13.79-12.032 21.897 0 0-0.017 0.017-0.017 0.034-2.167 4.352-4.335 8.926-6.451 13.687v0c-0.29 0.666-0.597 1.314-0.887 1.98v0c-0.939 2.133-1.877 4.369-2.833 6.673-0.341 0.836-0.683 1.707-1.024 2.56-0.887 2.236-1.792 4.489-2.748 7.066-1.741 4.642-3.379 9.489-4.949 14.49l-0.939 3.038c-0.102 0.341-0.222 0.683-0.324 1.041-1.604 5.393-3.14 10.906-4.437 16.572l-1.553 6.758-5.82 3.755c-9.899 6.383-15.804 17.084-15.804 28.621v68.267c0 9.574 4.062 18.5 11.435 25.173l5.632 5.069v112.333l-0.461 0.358c-0.58 12.322 0.154 50.091 27.699 81.51 28.279 32.273 76.544 48.623 143.428 48.623 66.645 0 114.807-16.23 143.121-48.265 33.229-37.564 27.733-85.623 27.699-86.033l-0.154-108.527 5.632-5.086c7.373-6.656 11.435-15.582 11.435-25.156v-68.267c0-14.899-9.762-27.938-24.269-32.41l-8.499-2.611-2.731-8.448c-11.418-35.516-27.682-68.318-48.367-97.502-5.069-7.185-10.001-13.551-14.285-18.415l-4.25-4.847v-70.4c0-30.208 16.777-57.361 43.793-70.878l163.038-81.51c40.858-20.429 66.236-61.491 66.236-107.179v-34.867z" />
<glyph unicode="&#xe92b;" d="M584.355 27.324c0-39.934-32.373-72.307-72.307-72.307s-72.307 32.373-72.307 72.307c0 39.934 32.373 72.307 72.307 72.307s72.307-32.373 72.307-72.307z" />
<glyph unicode="&#xe92c;" d="M834.504 744.333c-54.335 131.030-180.976 215.667-322.664 215.667-45.767 0-90.697-8.986-133.329-26.54-177.842-73.77-262.687-278.152-189.127-455.993 51.827-124.97 169.482-207.726 303.438-215.040v-145.868c-41.169-8.777-72.307-45.349-72.307-89.234 0-50.364 40.96-91.324 91.324-91.324s91.324 40.96 91.324 91.324c0 43.886-31.138 80.457-72.307 89.234v145.868c39.288 2.090 77.74 10.867 114.521 26.122 86.1 35.736 153.182 102.818 188.918 188.918 35.736 85.891 35.736 180.767 0.209 266.867zM803.993 503.798h-96.549c8.359 35.944 12.957 72.725 12.957 107.833 0 35.736-3.762 71.889-11.076 106.58h94.668c25.704-69.799 25.704-144.823 0-214.413zM219.895 503.798c-26.331 71.68-24.451 147.331 0.209 214.413h98.011c-7.105-34.691-11.076-70.844-11.076-106.58 0-35.109 4.598-71.889 12.957-107.833h-100.101zM344.864 611.422c0 36.78 4.18 72.725 11.703 106.58h136.464v-214.413h-133.747c-9.195 36.153-14.42 73.143-14.42 107.833zM530.856 918.831c53.917-11.494 103.027-76.487 129.985-163.004h-129.985v163.004zM493.031 917.995v-162.168h-126.433c26.331 84.846 73.77 148.584 126.433 162.168zM493.031 465.763v-160.705c-50.364 14.838-95.713 81.711-122.671 160.705h122.671zM530.856 304.222v161.541h126.015c-27.376-80.666-74.188-148.793-126.015-161.541zM530.856 503.798v214.204h140.016c7.523-33.646 11.703-69.799 11.703-106.58 0-34.691-5.224-71.889-14.211-107.833h-137.509v0.209zM787.065 756.036h-86.936c-9.404 32.81-21.734 63.53-36.989 91.115-11.494 20.689-24.033 38.452-37.407 53.708 68.545-26.958 126.224-77.949 161.332-144.823zM392.93 898.351c3.344 1.463 6.687 2.717 10.24 3.971-13.793-15.464-26.958-33.855-38.661-55.38-15.256-27.376-27.585-58.305-36.989-91.115h-90.488c32.601 62.276 86.1 113.685 155.899 142.524zM236.822 465.763h93.623c18.599-58.723 47.020-112.64 81.92-149.838-74.815 25.287-137.927 78.367-175.543 149.838zM565.338 27.324c0-29.466-24.033-53.29-53.29-53.29s-53.29 24.033-53.29 53.29c0 29.466 24.033 53.29 53.29 53.29s53.29-24.033 53.29-53.29zM630.957 323.448c-4.598-1.881-9.195-3.762-14.002-5.433 33.855 37.198 61.649 90.070 79.83 147.749h90.279c-33.646-64.157-88.189-114.312-156.108-142.315z" />
<glyph unicode="&#xe92d;" d="M359.493 27.324c0-10.449 8.359-19.017 19.017-19.017 10.449 0 19.017 8.359 19.017 19.017 0 10.449-8.568 19.017-19.017 19.017-10.449-0.209-19.017-8.568-19.017-19.017z" />
<glyph unicode="&#xe92e;" d="M237.24 27.324c0-10.449 8.359-19.017 19.017-19.017 10.449 0 19.017 8.359 19.017 19.017 0 10.449-8.568 19.017-19.017 19.017-10.658-0.209-19.017-8.568-19.017-19.017z" />
<glyph unicode="&#xe92f;" d="M298.262 27.324c0-10.449 8.359-19.017 19.017-19.017 10.449 0 19.017 8.359 19.017 19.017 0 10.449-8.359 19.017-19.017 19.017-10.449-0.209-19.017-8.568-19.017-19.017z" />
<glyph unicode="&#xe930;" d="M181.442 40.699c-3.553-3.553-5.642-8.359-5.642-13.375s2.090-9.822 5.642-13.375c3.553-3.553 8.359-5.642 13.375-5.642s9.822 2.090 13.375 5.642c3.553 3.553 5.642 8.359 5.642 13.375s-2.090 9.822-5.642 13.375c-3.553 3.553-8.359 5.642-13.375 5.642-4.807-0.209-9.822-2.090-13.375-5.642z" />
<glyph unicode="&#xe931;" d="M815.486 40.699c-3.553-3.553-5.642-8.359-5.642-13.375s2.090-9.822 5.642-13.375c3.553-3.553 8.359-5.642 13.375-5.642s9.822 2.090 13.375 5.642c3.553 3.553 5.642 8.359 5.642 13.375s-2.090 9.822-5.642 13.375c-3.553 3.553-8.359 5.642-13.375 5.642-4.807-0.209-9.822-2.090-13.375-5.642z" />
<glyph unicode="&#xe932;" d="M767.839 46.132c-10.449 0-19.017-8.568-19.017-19.017s8.359-19.017 19.017-19.017c10.449 0 19.017 8.359 19.017 19.017-0.209 10.658-8.568 19.017-19.017 19.017z" />
<glyph unicode="&#xe933;" d="M706.608 46.132c-10.449 0-19.017-8.568-19.017-19.017s8.568-19.017 19.017-19.017 19.017 8.359 19.017 19.017-8.568 19.017-19.017 19.017z" />
<glyph unicode="&#xe934;" d="M626.569 27.324c0-10.449 8.359-19.017 19.017-19.017 10.449 0 19.017 8.359 19.017 19.017 0 10.449-8.359 19.017-19.017 19.017-10.658-0.209-19.017-8.568-19.017-19.017z" />
<glyph unicode="&#xe935;" d="M352.562 453.022c0-32.009-25.949-57.958-57.958-57.958s-57.958 25.949-57.958 57.958c0 32.009 25.949 57.958 57.958 57.958s57.958-25.949 57.958-57.958z" />
<glyph unicode="&#xe936;" d="M569.958 453.022c0-32.009-25.949-57.958-57.958-57.958s-57.958 25.949-57.958 57.958c0 32.009 25.949 57.958 57.958 57.958s57.958-25.949 57.958-57.958z" />
<glyph unicode="&#xe937;" d="M787.354 453.022c0-32.009-25.949-57.958-57.958-57.958s-57.958 25.949-57.958 57.958c0 32.009 25.949 57.958 57.958 57.958s57.958-25.949 57.958-57.958z" />
<glyph unicode="&#xe938;" d="M76.999 82.674c42.475 0 76.999 34.524 76.999 76.999 0 35.361-24.062 65.282-56.703 74.069v58.377h178.897v-57.749c-33.687-8.16-58.795-38.499-58.795-74.697 0-42.475 34.524-76.999 76.999-76.999s76.999 34.524 76.999 76.999c0 35.57-24.481 65.7-57.331 74.279v144.582c32.85 8.788 57.331 38.709 57.331 74.279s-24.481 65.7-57.331 74.279v50.217h178.897v-49.798c-33.268-8.579-57.958-38.709-57.958-74.488 0-42.475 34.524-76.999 76.999-76.999s76.999 34.524 76.999 76.999c0 35.989-24.69 66.119-57.958 74.488v50.217h178.897v-50.217c-32.85-8.788-57.331-38.709-57.331-74.279s24.481-65.7 57.331-74.279v-48.543h-197.937c-10.462 0-19.040-8.579-19.040-19.040v-76.999c-33.268-8.579-57.958-38.709-57.958-74.488 0-42.475 34.524-76.999 76.999-76.999s76.999 34.524 76.999 76.999c0 35.989-24.69 66.119-57.958 74.488v57.958h178.897v-58.168c-32.85-8.788-57.331-38.709-57.331-74.279 0-42.475 34.524-76.999 76.999-76.999s76.999 34.524 76.999 76.999c0 36.198-25.108 66.537-58.795 74.697v57.749h178.897v-58.377c-32.641-8.997-56.703-38.709-56.703-74.069 0-42.475 34.524-76.999 76.999-76.999s76.999 34.524 76.999 76.999c0 36.407-25.318 66.955-59.423 74.906v76.58c0 10.462-8.579 19.040-19.040 19.040h-197.728v48.333c33.687 8.16 58.795 38.499 58.795 74.697s-25.108 66.537-58.795 74.697v68.42c0 10.462-8.579 19.040-19.040 19.040h-197.728v46.241c33.268 8.579 57.958 38.709 57.958 74.488 0 42.475-34.524 76.999-76.999 76.999s-76.999-34.524-76.999-76.999c0-35.989 24.69-66.119 57.958-74.488v-46.241h-197.728c-10.462 0-19.040-8.579-19.040-19.040v-68.839c-33.687-8.16-58.795-38.499-58.795-74.697s25.108-66.537 58.795-74.697v-48.333h-197.728c-10.462 0-19.040-8.579-19.040-19.040v-76.371c-33.896-7.951-59.423-38.499-59.423-74.906 0-42.475 34.524-76.999 76.999-76.999zM551.127 453.022c0-21.551-17.576-39.127-39.127-39.127s-39.127 17.576-39.127 39.127c0 21.551 17.576 39.127 39.127 39.127s39.127-17.576 39.127-39.127zM551.127 159.673c0-21.551-17.576-39.127-39.127-39.127s-39.127 17.576-39.127 39.127c0 21.551 17.576 39.127 39.127 39.127s39.127-17.576 39.127-39.127zM985.919 159.673c0-21.551-17.576-39.127-39.127-39.127s-39.127 17.576-39.127 39.127c0 21.551 17.576 39.127 39.127 39.127 21.761 0 39.127-17.576 39.127-39.127zM768.523 159.673c0-21.551-17.576-39.127-39.127-39.127s-39.127 17.576-39.127 39.127c0 21.551 17.576 39.127 39.127 39.127s39.127-17.576 39.127-39.127zM768.523 453.022c0-21.551-17.576-39.127-39.127-39.127s-39.127 17.576-39.127 39.127c0 21.551 17.576 39.127 39.127 39.127s39.127-17.576 39.127-39.127zM472.873 736.327c0 21.551 17.576 39.127 39.127 39.127s39.127-17.576 39.127-39.127-17.576-39.127-39.127-39.127c-21.551 0-39.127 17.576-39.127 39.127zM333.522 159.673c0-21.551-17.576-39.127-39.127-39.127s-39.127 17.576-39.127 39.127c0 21.551 17.576 39.127 39.127 39.127s39.127-17.576 39.127-39.127zM255.477 453.022c0 21.551 17.576 39.127 39.127 39.127s39.127-17.576 39.127-39.127c0-21.551-17.576-39.127-39.127-39.127-21.551 0.209-39.127 17.576-39.127 39.127zM76.999 198.8c21.551 0 39.127-17.576 39.127-39.127s-17.576-39.127-39.127-39.127-39.127 17.576-39.127 39.127c0.209 21.551 17.576 39.127 39.127 39.127z" />
<glyph unicode="&#xe939;" d="M90.039 251.817h849.359v-139.085h-849.359v139.085z" />
<glyph unicode="&#xe93a;" d="M512.105 42.039c-10.458 0-19.033-8.575-19.033-19.033v-48.941h-163.765c-10.458 0-19.033-8.575-19.033-19.033s8.575-19.033 19.033-19.033h365.595c10.458 0 19.033 8.575 19.033 19.033s-8.575 19.033-19.033 19.033h-163.765v48.941c0 10.667-8.575 19.033-19.033 19.033z" />
<glyph unicode="&#xe93b;" d="M111.373 93.908h801.255c25.307 0 45.804 20.497 45.804 45.804v551.529c0 25.307-20.497 45.804-45.804 45.804h-224.209c-10.458 0-19.033-8.575-19.033-19.033s8.575-19.033 19.033-19.033h224.209c4.392 0 7.948-3.556 7.948-7.948v-551.739c0-4.392-3.556-7.948-7.948-7.948h-801.255c-4.392 0-7.948 3.556-7.948 7.948v91.817h755.869c10.458 0 19.033 8.575 19.033 19.033s-8.575 19.033-19.033 19.033h-95.582c-7.948 55.007-55.425 97.464-112.523 97.464-10.458 0-19.033-8.575-19.033-19.033s8.575-19.033 19.033-19.033c36.183 0 66.51-25.516 74.039-59.399h-86.588c-7.32 58.353-53.752 104.784-112.105 112.314v131.974c0 10.458-8.575 19.033-19.033 19.033s-19.033-8.575-19.033-19.033v-132.81c-56.052-9.412-99.974-54.797-107.294-111.477h-87.007c7.529 33.882 37.856 59.399 74.039 59.399 10.458 0 19.033 8.575 19.033 19.033s-8.575 19.033-19.033 19.033c-57.098 0-104.575-42.458-112.523-97.464h-161.882c-2.719 1.464-5.856 2.51-9.203 2.51-10.458 0-19.033-8.575-19.033-19.033v-113.15c0.209-25.098 20.706-45.595 45.804-45.595zM510.222 344.889c44.967 0 82.614-32.627 90.353-75.503h-180.497c7.529 42.876 44.967 75.503 90.144 75.503z" />
<glyph unicode="&#xe93c;" d="M84.601 310.588c10.458 0 19.033 8.575 19.033 19.033v361.83c0 4.392 3.556 7.948 7.948 7.948h224.837c10.458 0 19.033 8.575 19.033 19.033s-8.575 19.033-19.033 19.033h-225.046c-25.307 0-45.804-20.497-45.804-45.804v-361.83c0.209-10.876 8.575-19.242 19.033-19.242z" />
<glyph unicode="&#xe93d;" d="M532.392 179.033c0-12.129-9.832-21.961-21.961-21.961s-21.961 9.832-21.961 21.961c0 12.129 9.832 21.961 21.961 21.961s21.961-9.832 21.961-21.961z" />
<glyph unicode="&#xe93e;" d="M342.484 483.765c0-10.458 8.575-19.033 19.033-19.033h38.902v-43.922c0-10.458 8.575-19.033 19.033-19.033s19.033 8.575 19.033 19.033v43.922h2.51c10.458 0 19.033 8.575 19.033 19.033s-8.575 19.033-19.033 19.033h-60.654v21.124c0 7.111 2.092 14.013 6.275 19.869l34.301 49.15c8.157 11.712 12.549 25.516 12.549 39.948v164.601c0 15.477 5.647 30.536 15.686 42.248l61.699 72.157 61.908-71.948c10.248-11.922 15.895-26.98 15.895-42.458v-165.647c0-13.176 3.765-26.144 10.876-37.438l32-50.405c3.556-5.647 5.438-11.922 5.438-18.614v-22.379h-57.516c-10.458 0-19.033-8.575-19.033-19.033 0-9.83 7.32-17.569 16.732-18.824v-44.131c0-10.458 8.575-19.033 19.033-19.033s19.033 8.575 19.033 19.033v43.922h40.575c10.458 0 19.033 8.575 19.033 19.033v41.412c0 13.804-3.974 27.19-11.294 38.902l-32 50.405c-3.346 5.229-5.020 11.085-5.020 17.15v165.438c0 24.68-8.993 48.523-25.098 67.346l-76.549 88.889c-3.556 4.183-8.784 6.484-14.431 6.484-5.438 0-10.876-2.51-14.431-6.693l-75.922-88.889c-15.895-18.614-24.68-42.458-24.68-66.928v-164.81c0-6.484-1.882-12.967-5.647-18.196l-34.301-49.15c-8.575-12.34-12.967-26.562-12.967-41.621v-39.948z" />
<glyph unicode="&#xe93f;" d="M601.685 231.394c-119.788-49.546-256.928 7.317-306.474 127.105s7.317 256.928 127.105 306.474 256.928-7.317 306.474-127.105-7.317-256.928-127.105-306.474z" />
<glyph unicode="&#xe940;" d="M511.999 757.165c10.453 0 19.024 8.571 19.024 19.024v119.161l42.229-42.229c3.763-3.763 8.571-5.644 13.379-5.644s9.616 1.881 13.379 5.644c7.317 7.317 7.317 19.442 0 26.759l-74.632 74.632c-7.317 7.317-19.442 7.317-26.759 0l-74.632-74.632c-7.317-7.317-7.317-19.442 0-26.759s19.442-7.317 26.759 0l42.229 42.229v-119.37c0-10.453 8.571-18.815 19.024-18.815z" />
<glyph unicode="&#xe941;" d="M511.999 139.201c-10.453 0-19.024-8.571-19.024-19.024v-119.37l-42.229 42.229c-7.317 7.317-19.442 7.317-26.759 0s-7.317-19.442 0-26.759l74.632-74.632c3.763-3.763 8.571-5.644 13.379-5.644s9.616 1.881 13.379 5.644l74.632 74.632c7.317 7.317 7.317 19.442 0 26.759s-19.442 7.317-26.759 0l-42.229-42.229v119.37c0 10.662-8.571 19.024-19.024 19.024z" />
<glyph unicode="&#xe942;" d="M203.017 448.183c0 10.453-8.571 19.024-19.024 19.024h-119.161l42.229 42.229c7.317 7.317 7.317 19.442 0 26.759s-19.442 7.317-26.759 0l-74.632-74.632c-7.317-7.317-7.317-19.442 0-26.759l74.632-74.632c3.763-3.763 8.571-5.644 13.379-5.644s9.616 1.881 13.379 5.644c7.317 7.317 7.317 19.442 0 26.759l-42.229 42.229h119.37c10.453 0 18.815 8.571 18.815 19.024z" />
<glyph unicode="&#xe943;" d="M943.698 536.195c-7.317 7.317-19.442 7.317-26.759 0s-7.317-19.442 0-26.759l42.229-42.229h-119.37c-10.453 0-19.024-8.571-19.024-19.024s8.571-19.024 19.024-19.024h119.37l-42.229-42.229c-7.317-7.317-7.317-19.442 0-26.759 3.763-3.763 8.571-5.644 13.379-5.644s9.616 1.881 13.379 5.644l74.632 74.632c7.317 7.317 7.317 19.442 0 26.759l-74.632 74.632z" />
<glyph unicode="&#xe944;" d="M144.482 796.676v-105.572c0-10.453 8.571-19.024 19.024-19.024s19.024 8.571 19.024 19.024v59.79l84.458-84.458c3.763-3.763 8.571-5.644 13.379-5.644s9.616 1.881 13.379 5.644c7.317 7.317 7.317 19.442 0 26.759l-84.458 84.458h59.79c10.453 0 19.024 8.571 19.024 19.024s-8.571 19.024-19.024 19.024h-105.572c-10.453 0-19.024-8.571-19.024-19.024z" />
<glyph unicode="&#xe945;" d="M736.107 99.689c0-10.453 8.571-19.024 19.024-19.024h105.572c10.453 0 19.024 8.571 19.024 19.024v105.572c0 10.453-8.571 19.024-19.024 19.024s-19.024-8.571-19.024-19.024v-59.79l-84.458 84.458c-7.317 7.317-19.442 7.317-26.759 0s-7.317-19.442 0-26.759l84.458-84.458h-59.79c-10.455-0.209-19.024-8.571-19.024-19.024z" />
<glyph unicode="&#xe946;" d="M293.537 229.721c-7.317 7.317-19.442 7.317-26.759 0l-84.458-84.458v59.79c0 10.453-8.571 19.024-19.024 19.024s-19.024-8.571-19.024-19.024v-105.572c0-10.453 8.571-19.024 19.024-19.024h105.572c10.453 0 19.024 8.571 19.024 19.024s-8.571 19.024-19.024 19.024h-59.79l84.458 84.458c7.317 7.317 7.317 19.442 0 26.759z" />
<glyph unicode="&#xe947;" d="M860.494 672.289c10.453 0 19.024 8.571 19.024 19.024v105.363c0 10.453-8.571 19.024-19.024 19.024h-105.572c-10.453 0-19.024-8.571-19.024-19.024s8.571-19.024 19.024-19.024h59.79l-84.458-84.458c-7.317-7.317-7.317-19.442 0-26.759 3.763-3.763 8.571-5.644 13.379-5.644s9.616 1.881 13.379 5.644l84.458 84.458v-59.79c0.209-10.244 8.571-18.815 19.024-18.815z" />
<glyph unicode="&#xe948;" d="M511.999 701.766c-33.24 0-65.852-6.481-96.792-19.233-129.196-53.518-190.657-202.155-137.349-331.142 39.302-95.12 131.286-156.582 234.35-156.582 33.24 0 65.852 6.481 96.792 19.442 129.196 53.518 190.657 202.155 137.349 331.142-39.509 94.911-131.493 156.373-234.35 156.373zM308.38 377.523c-16.515 47.246-15.261 97.001 0.209 141.321h58.953c-4.39-22.996-6.69-46.828-6.69-70.242 0-21.951 2.927-46.41 8.362-71.078h-60.835zM398.692 448.601c0 24.041 2.718 47.873 7.317 70.242h86.967v-141.321h-85.085c-5.854 23.832-9.198 48.292-9.198 71.078zM531.023 659.746c31.776-11.080 61.044-51.009 79.023-103.064h-79.023v103.064zM492.975 658.91v-102.018h-76.514c17.561 50.591 45.783 89.684 76.514 102.018zM492.975 339.684v-100.764c-29.268 13.17-56.027 53.309-73.587 100.764h73.587zM531.023 237.874v101.809h76.096c-17.977-48.919-45.99-89.893-76.096-101.809zM531.023 377.523v141.321h89.266c4.808-22.369 7.317-46.201 7.317-70.242 0-22.787-3.345-47.246-9.198-71.078h-87.385zM658.964 518.843h56.654c16.515-47.246 15.261-97.001-0.209-141.321h-58.326c5.435 24.668 8.362 49.128 8.362 71.078 0.211 23.623-2.088 47.246-6.481 70.242zM698.268 556.682h-48.501c-6.69 22.16-15.261 43.065-25.505 61.88-4.181 7.526-8.78 14.634-13.379 21.324 35.957-18.397 66.479-47.037 87.385-83.204zM416.67 641.558c-5.017-7.108-9.826-14.634-14.425-22.996-10.453-18.606-19.024-39.72-25.505-61.88h-50.8c20.696 35.748 51.636 65.643 90.73 84.876zM325.732 339.684h53.936c10.662-32.403 25.505-63.343 43.692-88.221-40.347 18.188-74.841 48.71-97.628 88.221zM604.403 253.344c17.77 24.459 31.985 54.772 42.438 86.339h51.218c-21.114-36.584-53.1-67.106-93.656-86.339z" />
<glyph unicode="&#xe949;" d="M1000.727 820.364h-977.455c-12.87 0-23.273-10.403-23.273-23.273v-698.182c0-12.87 10.403-23.273 23.273-23.273h977.455c12.847 0 23.273 10.403 23.273 23.273v698.182c0 12.87-10.426 23.273-23.273 23.273zM977.455 178.479l-288.303 288.279-32.908-32.908 311.668-311.668h-911.825l311.668 311.668-32.908 32.908-288.303-288.279v595.34h930.909v-595.34z" />
<glyph unicode="&#xe94a;" d="M930.42 773.818l-418.42-418.42-418.42 418.42h-47.034v-18.781l449.001-449.001c9.1-9.1 23.808-9.1 32.908 0l449.001 449.001v18.781h-47.034z" />
<glyph unicode="&#xe94b;" glyph-name="support2" d="M877.714 565.943c0 202.971-163.657 366.629-365.714 366.629s-365.714-163.657-365.714-365.714c0 0 0 0 0-0.914-81.371-4.571-146.286-72.229-146.286-154.514v-18.286c0-85.943 69.486-155.429 155.429-155.429h8.229l64.914-103.314c45.714-73.143 123.429-116.114 209.371-116.114h12.8c8.229-31.086 36.571-54.857 70.4-54.857 40.229 0 73.143 32.914 73.143 73.143s-32.914 73.143-73.143 73.143c-33.829 0-62.171-23.771-70.4-54.857h-12.8c-73.143 0-139.886 37.486-178.286 99.657l-53.029 83.2h12.8c20.114 0 36.571 16.457 36.571 36.571v256c0 20.114-16.457 36.571-36.571 36.571h-36.571c0 181.943 147.2 329.143 329.143 329.143s329.143-147.2 329.143-329.143h-36.571c-20.114 0-36.571-16.457-36.571-36.571v-256c0-20.114 16.457-36.571 36.571-36.571h64c85.943 0 155.429 69.486 155.429 155.429v18.286c0 82.286-64.914 149.943-146.286 154.514zM521.143 73.143c20.114 0 36.571-16.457 36.571-36.571s-16.457-36.571-36.571-36.571-36.571 16.457-36.571 36.571 16.457 36.571 36.571 36.571zM219.429 530.286v-256h-64c-65.829 0-118.857 53.029-118.857 118.857v18.286c0 65.829 53.029 118.857 118.857 118.857h64zM987.429 393.143c0-65.829-53.029-118.857-118.857-118.857h-64v256h64c65.829 0 118.857-53.029 118.857-118.857v-18.286zM663.771 794.514c-1.829 0.914-4.571 2.743-7.314 4.571s-5.486 3.657-7.314 4.571c-8.229 5.486-20.114 2.743-24.686-6.4s-2.743-19.2 6.4-24.686c1.829-0.914 4.571-2.743 7.314-4.571s5.486-3.657 8.229-4.571c2.743-1.829 6.4-2.743 9.143-2.743 6.4 0 11.886 2.743 15.543 9.143 4.571 8.229 1.829 19.2-7.314 24.686zM512 841.143c-77.714 0-150.857-33.829-201.143-92.343-6.4-7.314-5.486-19.2 1.829-25.6 3.657-2.743 7.314-4.571 11.886-4.571 5.486 0 10.057 1.829 13.714 6.4 43.886 50.286 106.971 79.543 173.714 79.543 16.457 0 32.914-1.829 49.371-5.486 10.057-1.829 19.2 4.571 21.943 13.714s-4.571 19.2-13.714 21.943c-19.2 4.571-38.4 6.4-57.6 6.4z" />
<glyph unicode="&#xe94c;" glyph-name="graphic-22" d="M375.467 635.733c0-9.426-7.641-17.067-17.067-17.067s-17.067 7.641-17.067 17.067c0 9.426 7.641 17.067 17.067 17.067s17.067-7.641 17.067-17.067zM375.467 567.467c0-9.426-7.641-17.067-17.067-17.067s-17.067 7.641-17.067 17.067c0 9.426 7.641 17.067 17.067 17.067s17.067-7.641 17.067-17.067zM375.467 499.2c0-9.426-7.641-17.067-17.067-17.067s-17.067 7.641-17.067 17.067c0 9.426 7.641 17.067 17.067 17.067s17.067-7.641 17.067-17.067zM375.467 430.933c0-9.426-7.641-17.067-17.067-17.067s-17.067 7.641-17.067 17.067c0 9.426 7.641 17.067 17.067 17.067s17.067-7.641 17.067-17.067zM375.467 362.667c0-9.426-7.641-17.067-17.067-17.067s-17.067 7.641-17.067 17.067c0 9.426 7.641 17.067 17.067 17.067s17.067-7.641 17.067-17.067zM494.933 635.733v-102.4h-68.267v170.667h-136.533v-102.4h-102.4v-273.067h-51.2c-9.421 0-17.067-7.629-17.067-17.067s7.646-17.067 17.067-17.067h750.933c9.421 0 17.067 7.629 17.067 17.067s-7.646 17.067-17.067 17.067h-51.2v375.467h-102.4v51.2h-136.533v-119.467h-102.4zM221.867 328.533v238.933h68.267v-238.933h-68.267zM341.333 328.533c0 9.421-7.646 17.067-17.067 17.067v34.133c9.421 0 17.067 7.646 17.067 17.067s-7.646 17.067-17.067 17.067v34.133c9.421 0 17.067 7.646 17.067 17.067s-7.646 17.067-17.067 17.067v34.133c9.421 0 17.067 7.646 17.067 17.067s-7.646 17.067-17.067 17.067v34.133c9.421 0 17.067 7.646 17.067 17.067s-7.646 17.067-17.067 17.067v34.133c9.421 0 17.067 7.646 17.067 17.067h34.133c0-9.421 7.646-17.067 17.067-17.067v-34.133c-9.421 0-17.067-7.646-17.067-17.067s7.646-17.067 17.067-17.067v-34.133c-9.421 0-17.067-7.646-17.067-17.067s7.646-17.067 17.067-17.067v-34.133c-9.421 0-17.067-7.646-17.067-17.067s7.646-17.067 17.067-17.067v-34.133c-9.421 0-17.067-7.646-17.067-17.067s7.646-17.067 17.067-17.067v-34.133c-9.421 0-17.067-7.646-17.067-17.067h-34.133zM426.667 328.533v170.667h68.267v-170.667h-68.267zM529.067 328.533v273.067h68.267v-273.067h-68.267zM802.133 669.867v-341.333h-68.267v341.333h68.267zM631.467 721.067h68.267v-392.533h-68.267v392.533zM1024 891.733h-494.933v51.2c0 9.438-7.646 17.067-17.067 17.067s-17.067-7.629-17.067-17.067v-51.2h-494.933v-716.8h470.801l-209.801-209.801c-6.673-6.673-6.673-17.459 0-24.132 3.328-3.328 7.697-5.001 12.066-5.001s8.738 1.673 12.066 5.001l209.801 209.801v-163.601c0-9.438 7.646-17.067 17.067-17.067s17.067 7.629 17.067 17.067v163.601l209.801-209.801c3.328-3.328 7.697-5.001 12.066-5.001s8.738 1.673 12.066 5.001c6.673 6.673 6.673 17.459 0 24.132l-209.801 209.801h470.801v716.8zM989.867 209.067h-955.733v648.533h955.733v-648.533z" />
<glyph unicode="&#xe94d;" glyph-name="layers2" d="M1023.998 447.999c0 21.642-12.024 41.102-31.388 50.796l-76.244 38.122 76.244 38.12c0.002 0.002 0.008 0.004 0.008 0.004 19.36 9.69 31.384 29.152 31.384 50.794 0 21.638-12.026 41.1-31.388 50.794l-430.435 215.212c-31.424 15.698-68.94 15.698-100.37-0.002l-430.427-215.22c-19.356-9.686-31.382-29.146-31.382-50.786 0-21.642 12.024-41.102 31.388-50.796l76.242-38.12-76.252-38.126c-19.354-9.69-31.378-29.15-31.378-50.792s12.024-41.102 31.388-50.794l76.242-38.122-76.236-38.118c-19.354-9.67-31.386-29.124-31.394-50.768-0.008-21.656 12.016-41.128 31.388-50.824l430.429-215.216c15.712-7.85 32.942-11.772 50.18-11.772s34.476 3.926 50.19 11.774l430.429 215.216c19.364 9.69 31.39 29.164 31.382 50.82-0.008 21.644-12.040 41.098-31.388 50.762l-76.244 38.122 76.252 38.126c19.356 9.692 31.38 29.152 31.38 50.794zM52.45 617.139c-4.678 2.342-5.374 6.452-5.374 8.692s0.7 6.35 5.366 8.686l430.415 215.208c9.126 4.56 19.136 6.836 29.146 6.836 10.006 0 20.014-2.278 29.134-6.834l430.413-215.206c4.674-2.34 5.374-6.45 5.374-8.69s-0.696-6.35-5.374-8.692l-430.407-215.202c-18.25-9.116-40.038-9.116-58.278-0.002l-430.415 215.204zM971.564 278.851c4.66-2.328 5.358-6.43 5.358-8.672 0.002-2.246-0.696-6.364-5.366-8.7l-430.415-215.208c-18.25-9.116-40.038-9.118-58.278-0.002l-430.413 215.208c-4.678 2.342-5.376 6.458-5.374 8.704 0 2.238 0.696 6.342 5.366 8.674l107.824 53.912 301.551-150.774c15.712-7.85 32.942-11.772 50.178-11.772 17.238 0 34.476 3.926 50.19 11.774l301.543 150.772 107.836-53.916zM971.554 439.311l-430.413-215.208c-18.25-9.116-40.038-9.118-58.278-0.002l-430.413 215.206c-4.678 2.34-5.374 6.45-5.374 8.69 0 2.244 0.696 6.35 5.366 8.688l107.824 53.912 301.551-150.774c15.71-7.85 32.944-11.772 50.178-11.772s34.474 3.924 50.188 11.776l301.547 150.772 107.816-53.908c4.678-2.342 5.374-6.45 5.374-8.692 0.002-2.24-0.696-6.35-5.366-8.688z" />
<glyph unicode="&#xe94e;" glyph-name="line-chart" d="M915.272 690.639c-59.952 0-108.726-48.774-108.726-108.726 0-21.866 6.51-42.228 17.662-59.294l-117.466-117.466c-17.068 11.152-37.43 17.662-59.296 17.662-22.658 0-43.716-6.976-61.152-18.882l-118.676 118.694c11.15 17.066 17.656 37.426 17.656 59.288 0 59.952-48.774 108.726-108.726 108.726s-108.726-48.774-108.726-108.726c0-21.862 6.508-42.216 17.654-59.282l-117.47-117.472c-17.064 11.148-37.422 17.654-59.282 17.654-59.952 0-108.726-48.776-108.726-108.728s48.774-108.726 108.726-108.726c59.952 0 108.726 48.774 108.726 108.726 0 21.866-6.51 42.228-17.662 59.296l117.466 117.466c17.068-11.152 37.43-17.662 59.296-17.662 21.864 0 42.226 6.51 59.292 17.662l119.332-119.348c-10.412-16.676-16.452-36.348-16.452-57.412 0-59.952 48.774-108.726 108.726-108.726s108.726 48.774 108.726 108.726c0 21.862-6.508 42.218-17.654 59.282l117.472 117.472c17.066-11.148 37.424-17.654 59.282-17.654 59.952 0 108.726 48.774 108.726 108.726 0 59.954-48.776 108.724-108.728 108.724zM108.726 250.303c-35.172 0-63.786 28.614-63.786 63.784 0 35.172 28.614 63.786 63.786 63.786 35.17 0 63.786-28.614 63.786-63.786 0-35.17-28.614-63.784-63.786-63.784zM376.551 518.129c-35.17 0-63.786 28.614-63.786 63.786 0 35.17 28.614 63.786 63.786 63.786s63.786-28.614 63.786-63.786c0-35.172-28.614-63.786-63.786-63.786zM647.447 250.303c-35.17 0-63.786 28.614-63.786 63.786s28.614 63.786 63.786 63.786c35.17 0 63.786-28.614 63.786-63.786-0.002-35.172-28.616-63.786-63.786-63.786zM915.272 518.129c-35.17 0-63.786 28.614-63.786 63.786 0 35.17 28.614 63.786 63.786 63.786 35.17 0 63.786-28.614 63.786-63.786s-28.616-63.786-63.786-63.786zM353.547 414.567c-8.776 8.774-23.002 8.774-31.778 0l-45.708-45.708c-8.774-8.774-8.774-23.002 0.002-31.778 4.388-4.388 10.138-6.582 15.888-6.582s11.502 2.196 15.888 6.582l45.708 45.708c8.778 8.774 8.778 23.004 0 31.778zM747.923 558.123c-8.776 8.774-23 8.774-31.78-0.002l-45.708-45.708c-8.774-8.774-8.774-23.002 0-31.778 4.39-4.386 10.14-6.58 15.89-6.58 5.752 0 11.5 2.196 15.888 6.582l45.708 45.708c8.776 8.776 8.776 23.004 0.002 31.778z" />
<glyph unicode="&#xe94f;" glyph-name="polygon" d="M768.109-2.833l255.891 450.825-255.891 450.825h-512.233l-255.875-450.825 255.891-450.825h512.217zM274.617 866.615h474.735l237.617-418.623-237.601-418.623h-474.751l-237.601 418.623 237.601 418.623z" />
<glyph unicode="&#xe950;" glyph-name="note" d="M843.639 660.94l-331.603-292.208-331.675 292.212c-13.207 11.635-33.337 10.356-44.968-2.842-11.626-13.202-10.361-33.333 2.846-44.968l352.74-310.771c6.019-5.301 13.542-7.952 21.061-7.952s15.046 2.651 21.065 7.956l352.668 310.771c13.198 11.631 14.468 31.766 2.838 44.968-11.639 13.19-31.766 14.464-44.972 2.833zM928.423 796.333h-832.845c-52.699 0-95.577-42.874-95.577-95.577v-505.507c0-52.704 42.878-95.577 95.577-95.577h832.845c52.699 0 95.577 42.874 95.577 95.577v505.507c0 52.699-42.878 95.577-95.577 95.577zM960.282 195.249c0-17.565-14.29-31.859-31.859-31.859h-832.845c-17.569 0-31.859 14.294-31.859 31.859v505.507c0 17.565 14.29 31.859 31.859 31.859h832.845c17.569 0 31.859-14.294 31.859-31.859v-505.507z" />
<glyph unicode="&#xe951;" glyph-name="hexagon" d="M970.582 701.184l-448 256c-6.57 3.754-14.592 3.754-21.162 0l-448-256c-6.656-3.798-10.752-10.88-10.752-18.518v-469.334c0-7.638 4.096-14.72 10.752-18.518l448-256c3.286-1.878 6.912-2.816 10.582-2.816s7.296 0.938 10.582 2.816l448 256c6.656 3.798 10.752 10.88 10.752 18.518v469.334c-0.002 7.638-4.098 14.72-10.754 18.518zM938.666 225.706l-426.666-243.796-426.666 243.796v444.588l426.666 243.796 426.666-243.798v-444.586z" />
<glyph unicode="&#xe952;" d="M704.535 587.256h-203.714v203.714c-112.408 0-203.714-91.097-203.714-203.714s91.097-203.714 203.714-203.714 203.714 91.097 203.714 203.714z" />
<glyph unicode="&#xe953;" d="M1004.778 959.373h-985.765c-10.447 0-19.013-8.566-19.013-19.013s8.566-19.013 19.013-19.013h36.564v-609.051c0-29.669 24.028-53.697 53.697-53.697h809.422c29.669 0 53.697 24.028 53.697 53.697v609.26h32.594c10.447 0 19.013 8.566 19.013 19.013s-8.775 18.804-19.222 18.804zM934.366 312.295c0-8.775-7.104-15.67-15.67-15.67h-809.631c-8.775 0-15.67 7.104-15.67 15.67v609.26h840.971v-609.26z" />
<glyph unicode="&#xe954;" d="M356.655-30.988c-7.313-7.313-7.313-19.431 0-26.744 3.761-3.761 8.566-5.641 13.372-5.641s9.611 1.88 13.372 5.641l121.601 121.601v-108.229c0-10.447 8.566-19.013 19.013-19.013s19.013 8.566 19.013 19.013v108.229l120.974-120.974c3.761-3.761 8.566-5.641 13.372-5.641s9.611 1.88 13.372 5.641c7.313 7.313 7.313 19.431 0 26.744l-147.718 147.718v57.249h75.008c10.447 0 19.013 8.566 19.013 19.013s-8.566 19.013-19.013 19.013h-190.759c-10.447 0-19.013-8.566-19.013-19.013s8.566-19.013 19.013-19.013h77.933v-57.249l-148.554-148.345z" />
<glyph unicode="&#xe955;" d="M500.822 364.53c122.855 0 222.727 99.872 222.727 222.727 0 10.447-8.566 19.013-19.013 19.013h-184.7v184.7c0 10.447-8.566 19.013-19.013 19.013-122.855 0-222.727-99.872-222.727-222.727s99.872-222.727 222.727-222.727zM481.809 771.121v-183.865c0-10.447 8.566-19.013 19.013-19.013h183.865c-9.611-92.977-88.38-165.896-183.865-165.896-101.961 0-184.7 82.948-184.7 184.7 0 95.693 72.71 174.462 165.687 184.073z" />
<glyph unicode="&#xe956;" d="M591.083 655.788h159.837c10.447 0 19.013 8.566 19.013 19.013 0 43.668-15.879 85.664-44.713 118.467-34.057 38.235-82.948 60.174-134.138 60.174-10.447 0-19.013-8.566-19.013-19.013v-159.837c0-10.447 8.357-18.804 19.013-18.804zM609.887 814.371c33.221-4.597 64.144-20.894 86.709-46.384 18.595-20.894 30.296-46.802 34.057-74.382h-120.766v120.766z" />
<glyph unicode="&#xe957;" glyph-name="presentation2" d="M978.122 888.24h-443.184v25.818c0 12.668-10.27 22.938-22.938 22.938s-22.938-10.27-22.938-22.938v-25.818h-443.184c-25.298 0-45.878-20.58-45.878-45.878v-42.568c0-25.296 20.58-45.878 45.878-45.878h6.234v-515.59c0-25.296 20.58-45.878 45.878-45.878h391.072v-67.324l-169.986-124.686c-10.214-7.494-12.424-21.85-4.93-32.064 7.496-10.216 21.85-12.422 32.064-4.93l142.852 104.784v-86.288c0-12.668 10.27-22.938 22.938-22.938 12.67 0 22.938 10.27 22.938 22.938v86.288l142.852-104.784c4.088-2.998 8.84-4.444 13.55-4.444 7.058 0 14.020 3.246 18.514 9.372 7.494 10.214 5.286 24.57-4.93 32.064l-169.986 124.686v67.324h391.072c25.296 0 45.878 20.58 45.878 45.878v515.594h6.234c25.296 0 45.878 20.58 45.878 45.878v42.566c0 25.298-20.58 45.878-45.878 45.878zM926.010 238.33h-828.020v515.588h828.022v-515.588zM978.122 799.796h-932.244v42.566h932.246v-42.566zM511.564 687.492c-11.402 0-20.644-9.242-20.644-20.644v-158.314h-158.314c-11.402 0-20.644-9.242-20.644-20.644 0-110.062 89.542-199.602 199.604-199.602s199.606 89.542 199.606 199.602-89.546 199.602-199.608 199.602zM511.564 329.576c-80.3 0-146.826 60.092-156.974 137.668h156.974c11.402 0 20.644 9.242 20.644 20.644v156.974c77.576-10.148 137.67-76.674 137.67-156.974 0.002-87.294-71.018-158.312-158.314-158.312zM441.69 708.85c-83.304 0-151.078-67.782-151.078-151.096 0-11.402 9.242-20.644 20.644-20.644h130.434c11.402 0 20.644 9.242 20.644 20.644v130.452c0.002 11.402-9.24 20.644-20.644 20.644zM421.046 578.398h-87.198c8.406 44.026 43.18 78.806 87.198 87.214v-87.214z" />
</font>
</defs>
</svg>
